<mxfile host="app.diagrams.net" agent="Mozilla/5.0 (Windows NT 10.0; Win64; x64) AppleWebKit/537.36 (KHTML, like Gecko) Chrome/139.0.0.0 Safari/537.36" version="28.1.2">
  <diagram name="Trang-1" id="kikPd4QXjJkxKganKrWe">
    <mxGraphModel dx="1042" dy="623" grid="1" gridSize="10" guides="1" tooltips="1" connect="1" arrows="1" fold="1" page="1" pageScale="1" pageWidth="413" pageHeight="583" math="0" shadow="0">
      <root>
        <mxCell id="0" />
        <mxCell id="1" parent="0" />
        <mxCell id="MB20FCoI7DoMV8oSUzf_-36" style="edgeStyle=orthogonalEdgeStyle;rounded=0;orthogonalLoop=1;jettySize=auto;html=1;entryX=0.5;entryY=0;entryDx=0;entryDy=0;" parent="1" source="MB20FCoI7DoMV8oSUzf_-3" target="MB20FCoI7DoMV8oSUzf_-4" edge="1">
          <mxGeometry relative="1" as="geometry" />
        </mxCell>
        <mxCell id="MB20FCoI7DoMV8oSUzf_-3" value="Start" style="strokeWidth=2;html=1;shape=mxgraph.flowchart.start_1;whiteSpace=wrap;" parent="1" vertex="1">
          <mxGeometry x="364" y="30" width="100" height="60" as="geometry" />
        </mxCell>
        <mxCell id="MB20FCoI7DoMV8oSUzf_-37" style="edgeStyle=orthogonalEdgeStyle;rounded=0;orthogonalLoop=1;jettySize=auto;html=1;" parent="1" source="MB20FCoI7DoMV8oSUzf_-4" target="MB20FCoI7DoMV8oSUzf_-26" edge="1">
          <mxGeometry relative="1" as="geometry" />
        </mxCell>
        <mxCell id="MB20FCoI7DoMV8oSUzf_-4" value="Data&lt;div&gt;(M, N)&lt;/div&gt;" style="shape=parallelogram;html=1;strokeWidth=2;perimeter=parallelogramPerimeter;whiteSpace=wrap;rounded=1;arcSize=12;size=0.23;" parent="1" vertex="1">
          <mxGeometry x="364" y="120" width="100" height="60" as="geometry" />
        </mxCell>
        <mxCell id="MB20FCoI7DoMV8oSUzf_-63" style="edgeStyle=orthogonalEdgeStyle;rounded=0;orthogonalLoop=1;jettySize=auto;html=1;entryX=0;entryY=0.5;entryDx=0;entryDy=0;" parent="1" source="MB20FCoI7DoMV8oSUzf_-19" target="MB20FCoI7DoMV8oSUzf_-23" edge="1">
          <mxGeometry relative="1" as="geometry" />
        </mxCell>
        <mxCell id="MB20FCoI7DoMV8oSUzf_-19" value="Kernel Matrix/ Hamiltonian" style="shape=parallelogram;perimeter=parallelogramPerimeter;whiteSpace=wrap;html=1;fixedSize=1;fontStyle=1;startSize=0;" parent="1" vertex="1">
          <mxGeometry x="354" y="500" width="120" height="60" as="geometry" />
        </mxCell>
        <mxCell id="MB20FCoI7DoMV8oSUzf_-41" style="edgeStyle=orthogonalEdgeStyle;rounded=0;orthogonalLoop=1;jettySize=auto;html=1;entryX=1;entryY=0.5;entryDx=0;entryDy=0;exitX=0.5;exitY=1;exitDx=0;exitDy=0;" parent="1" source="MB20FCoI7DoMV8oSUzf_-23" target="MB20FCoI7DoMV8oSUzf_-28" edge="1">
          <mxGeometry relative="1" as="geometry">
            <mxPoint x="630" y="790" as="targetPoint" />
          </mxGeometry>
        </mxCell>
        <mxCell id="MB20FCoI7DoMV8oSUzf_-23" value="Decomposing to Pauli Matrix" style="rounded=1;whiteSpace=wrap;html=1;absoluteArcSize=1;arcSize=14;strokeWidth=2;fontSize=15;" parent="1" vertex="1">
          <mxGeometry x="870" y="467.5" width="163" height="125" as="geometry" />
        </mxCell>
        <mxCell id="MB20FCoI7DoMV8oSUzf_-38" style="edgeStyle=orthogonalEdgeStyle;rounded=0;orthogonalLoop=1;jettySize=auto;html=1;entryX=0.5;entryY=0;entryDx=0;entryDy=0;" parent="1" source="MB20FCoI7DoMV8oSUzf_-26" target="MB20FCoI7DoMV8oSUzf_-19" edge="1">
          <mxGeometry relative="1" as="geometry" />
        </mxCell>
        <mxCell id="MB20FCoI7DoMV8oSUzf_-26" value="Trainable Quantum Feature Map" style="swimlane;whiteSpace=wrap;html=1;" parent="1" vertex="1">
          <mxGeometry x="72.7" y="210" width="682.6" height="250" as="geometry" />
        </mxCell>
        <mxCell id="MB20FCoI7DoMV8oSUzf_-13" value="Compute Kernel Matrix" style="rounded=1;whiteSpace=wrap;html=1;absoluteArcSize=1;arcSize=14;strokeWidth=2;" parent="MB20FCoI7DoMV8oSUzf_-26" vertex="1">
          <mxGeometry x="14" y="200" width="90" height="35" as="geometry" />
        </mxCell>
        <mxCell id="MB20FCoI7DoMV8oSUzf_-12" value="Optimize" style="rounded=1;whiteSpace=wrap;html=1;absoluteArcSize=1;arcSize=14;strokeWidth=2;" parent="MB20FCoI7DoMV8oSUzf_-26" vertex="1">
          <mxGeometry x="14" y="147.5" width="90" height="35" as="geometry" />
        </mxCell>
        <mxCell id="MB20FCoI7DoMV8oSUzf_-11" value="Loss Function" style="rounded=1;whiteSpace=wrap;html=1;absoluteArcSize=1;arcSize=14;strokeWidth=2;" parent="MB20FCoI7DoMV8oSUzf_-26" vertex="1">
          <mxGeometry x="14" y="97.5" width="90" height="35" as="geometry" />
        </mxCell>
        <mxCell id="MB20FCoI7DoMV8oSUzf_-27" value="Parametrized Circuit" style="rounded=1;whiteSpace=wrap;html=1;absoluteArcSize=1;arcSize=14;strokeWidth=2;" parent="MB20FCoI7DoMV8oSUzf_-26" vertex="1">
          <mxGeometry x="14" y="37.5" width="90" height="40" as="geometry" />
        </mxCell>
        <mxCell id="t4PKV1QuwNsnvt7W0I-o-1" value="Optimize loss function to resort data in Hilbert Space" style="text;html=1;align=center;verticalAlign=middle;whiteSpace=wrap;rounded=0;fontSize=15;" vertex="1" parent="MB20FCoI7DoMV8oSUzf_-26">
          <mxGeometry x="257.3" y="38" width="282.7" height="88" as="geometry" />
        </mxCell>
        <mxCell id="t4PKV1QuwNsnvt7W0I-o-2" value="" style="shape=image;verticalLabelPosition=bottom;labelBackgroundColor=default;verticalAlign=top;aspect=fixed;imageAspect=0;image=data:image/png,iVBORw0KGgoAAAANSUhEUgAAAngAAAClCAYAAADPqIDiAAAAAXNSR0IArs4c6QAAAARnQU1BAACxjwv8YQUAAAAJcEhZcwAADsMAAA7DAcdvqGQAAESKSURBVHhe7d13WFPXGwfw771JABmCC5Th3ltxiyiytHVUxVm1WrUWdx1tXTir1Trbumf9aV24JyLuida9i3uBExmycvP+/ghVCAQSSRjx/TzPfZ6We4nhnuSc957xHoGICIwxxhhjzGSImj9gjDHGGGN5Gwd4jDHGGGMmhgM8xhhjjDETwwEeY4wxxpiJ4QCPMcYYY8zEcIDHGGOMMWZiOMBjjDHGGDMxHOAxxhhjjJkYDvAYY4wxxkwMB3iMMcYYYyaGAzzGGGOMMRPDAR5jjDHGmInhAI8xxhhjzMRwgMcYY4wxZmI4wGOMMcYYMzEc4DHGGGOMmRgO8BhjjDHGTAwHeIwxxhhjJkYgItL8IWOMsWygisSNQ4dwI1Kl/n/RHrW+cEcZC80LNUXj1uFgXHut/j3BvAQ6tK6reRFj7DPGPXiMMZZTRAVsC9vi/YXFGNatEzp2GY61/yo1r9Kgwstdw9Ha1w+deoxF4CMLuFQooXkRY+wzxwEeY4zlGCs41fTE1z2awwkAVOF48kTSvCgV1dONGDJgFe4miXDqNgtLhrdCvfL2mpcxxj5zHOAxxliOUuHxgRCEmZtDUL3C0ycxmhd8JN3FioFjse8NgWQO8GnnCVvNaxhjjAM8xhjLYaoXCD6kxJdty0JOKoQ/eYL0B2kTcW3+IPxVwAM1BIJo2wS+TSw1L2KMMYADPMYYy2HvQhDyxg09GztDFCStAd770OkYsqsuJrhF4kocYNXYB81sNK9ijDE1DvAY+4ypIm/g4NZABAamPrbs+QcRyQs7mXHFHDmIh67eqF/CCYVEwpunTxCtedG7I5gw4iRazBuG2GMnEUXmqOvthcJcgzPGtODqgbHPmGhWEC4u5rj0Rz907tgRnXqOw7YnliheoThsuXbIBvE4HXwDVb3qIZ+LC4qJBFX4EzxJ2YWneok9P43G7W5/YnjFCwg68gokrwkvH6c0FXjM5bWYMHYxTr3l6Jyxz51m/cAY+5xYFkWFuj7wqGoLATIU7zEPS4Z9gbpliyDTVGws6xLPI+hCWXg1sYTc2QVFZQKk50/w+EOAp8LTzcMx+a0//viuPFT/BOHwMwnySl5oUUaW+rWQgHPLA/DLr5Ow4lSixjnG2OeGAzzGPnfSM1y+Fg6VzBG+7ZvBWvM8Mxrl9QM4Xaw5PGwAWLrAubAIVeRTPH2n7oGT7q3C4DkK/DS/O0rIlLh14BDuKeUo0dwHVeSar2aOplP34sCeXZjWgsNzxj53HOAx9plTvQzGwX8SIRRsCt/GHBhkHwlh+4/BulnyXDq5E1yKiQA9x5PHKiDxOv4YuByOk2bhq6IiID1A0MFrUMoc0MynLsw0Xw6AaFsRzVvUgYNm5x5j7LPDAR5jn7l3IUE4/R7I7+aDZtx9l31UT3DgCNDUx1ldEctc4OKogCCF4/GTaJyfMRhbaszE9BYFIQJQhR/AgYtJEAq4w9ctZSAejVsh67Bw+hgM6umHkZueg2fgMcY4wGPssxaDI0EnEIV8qO/jBTvN08xoVC+DcSiqMXzK/dfdZgZnJ3uIqnf4d/tIDD3sgbkTm+C/TChvDx5AaBxg3dhXPaT7gQJFytdB8Wc7sGTDbZiVKsIVO2OM6wHGPmvxJ7H/yGuQoja8fey5QshGr4P241FdL1T7MJdODmeXohCRhNCdD9Dxz59Q50NH3VsE7z2OGJijjmdzFPjwKgBggUIuzpCiX0Nw8YBP9TST8xhjnyGuzxn7jCWeD8KR5xLk1bzgU5wnbmUb6T42rzsG+ypVYf7hhzI4FneEucweX85chsGVP86yUz3eir+DI6ESi6FS1XQC8fjT2H/4DYp4+KLexxdkjH3G0tQTjLHPhRLXgw7hvlKOMs19UYE7foxPFYHjK3/BiM5tMfbgK5yY2wdDp6zD+eTMxmbOJVCnyzws+rY0ZABUL09h9bRR6Nb2R+x5qwJUj7B5TH+MmbcX96SPL5t4YT8OPc8Pdx838OZljDEAEIiINH/IGPsMSLcwvXF1jD3viO+DbmOhJ3f95E1KXJpQF/XmFcfSsB3oVUTzPGPsc8Q9eIwZnYQ31w7i2J33midylOrJAQRfVkIo3Ay+DbQEd4n3cfXmO82f5hG5874bnHQPQcE3IK/rDc9CmicZY58rDvAYMxoJL/9Zh3F+tVCu1peYuP91LkpfocLL4AM4lyAgv5sP3K00zwOAErcWTcH6cC3BX66Vm++74ameBeHAJaCmtw8cuUZnjCXj6oAxg1Mi4uxq/PRVNZSv3wO/bLmKNyn3Fs0VXiNo70m8hznqenrAVvM0gNjLv+OHddbwbpRXkh/nhftuaCq8Cj6Ac8qq8GmpnrfHGGPgAI8xw4s++gem73yLcq2+hmdpBQTNC3IB6f5mrDv0DirBFk5O+VNVBKr3T3FmzTD4eP2Mfxu0R6M80oGXF+674UXhUNApJNX2Q+e0e5cxxj5jvMiCMaORcPe3pqj040kkwQwe88NwcIhLjj5VqSKOY/Xy7di7cSW2XY2ECgJkVg4oWbwQLAQVkt5HIuJZBKISVSB5GQw5eB3zm+aRCO+D3HffjSZ6G3qW/xYvJ1zCnu9LmObfyBj7JFwfMGY0MhQr7giLXNSVJDo0wbdjZyPwyltIRCBSQRnzHGE3ruHa9Ru4ff8ZIhMkqIhASWF5MLhDrrzvhhR/LwTrd19HDFR4vGk1TlQah9++5eCOMZYa1wmMGZFobgFzEw00cjPTve9KXF3xA/wnLsH6xSMx/KArlq4dhqofcyIzxhjAAR5jRiYIn8lcsFzGZO+7HHUnHMTJeR1Q02c81q0PgJcjL61gjKXFAR5jjOUlZvao4tYUdUsXAHfcMca04QCPMcYYY8zEcIDHGGOMMWZiOMBjjDHGGDMxHOAxxhhjjJkYDvAYY4wxxkwMB3iMMcaYUajw9uRc9O3yPRafj9E8yZhRcYDHWJ7zHqET6sFaFCAIue9QlBuKYwma7/kz8z4UE+pZQ0zn/uT8oUC5ocfwuRdR9kjE8WXTsWrjcsxYFcr3nGUr3ouWMSOK3/ENirdfg5cqA++JmnAFM33cMfrYO6hSnRCgsLKFjblB/pU0VIkxiIpNhCqjWkNWHP333cRib0vNM9nGaPddDwlXZsLHfTSOvUtdQhAUsLK1gXGKSIXEmCjEJqqQcRH1x76bi5GDRfTZiL8ZiFlrwlC930i0KS3XPM2Y0XCAx5gRGTPQUN76E1+6DcWB1ykDCAE2DSbh0OHxqGOR4scGpIx9jYjwcDx/fBvnj4UgaMcW7L0YgcQPNYkMTr234dbK1rBO/avZxpj3XXdK3PrzS7gNPYDURWSDBpMO4fD4OjBOESkR+zoC4eHP8fj2eRwLCcKOLXtxMSLxY9Anc0LvbbewsnVOlRBjeUP8/cNYu3YXQh/EwqZ4FdT17oB2jZyQJ3bpJsaY0cRt70lFRBBgRh7zHpGkeUGWKOneirbkIIKAFIeQj2r+fJyiNS83mlh6EDKHvq5qS6Kgfg+i/dcUGKl5XfYx7n3Xg/IerWjrQGLK8gFIyFeTfj6efSVEsQ8oZM7XVNVWJAEgQCT7rwMpB4voMyFR/Ku7dCXsVc59BtknkujpjkFUM7+Yun4V81O1vuspLEnz+twn+x9qGfucECUPoRKSlMoMh830J0OpXgswr5MzZCk3XqU4XJ7TD6OD36b4oTFZokTzH7D27Gms6FYO5gKgerUPG/a81rww+xj1vutBVgq9FsxDJ2dZqr1xKe4y5vQbjewrohJo/sNanD29At3KmUOACq/2bUBOFpEpk+7uxqwR3eBWqiBsilREnw0ROfcZZJ9E9fxvDB28G4X7LMCuU1dw5fQuLBjQAIWEaFxd0RfdZ16BUvOXchkO8BgzIik2BnHJNfv76GjDV/KiEzrN/wPflFSkDiASb2PJ96Ow44XG/C9jsqyEXiv3YmnHEpDTWwRv3ImIbPznUzL6fdeD6NQJ8//4BiUVqUoIibeX4PtRO5C9RdQLK/cuRccSctDbYGzcGaExh5MZgqxMK4ycvQyD6wFKeQV4+ZSHTPMilotJuLd+NxSTDmLfnO/RqmE1VGvQCgMWBGPb0EpQIBbn1/wPoYmav5e7cIDHmNHE4p/zN5Lnpilx6+Ae3DLCMjrR/ivMWvQdypulDiCS7q/GoKEb8TQ7W3Czsui+8A98U0qGqEMbse15dv7j/8me+647EfZfzcKi78ojdREl4f7qQRi68Wm2BllmZbtj4R/foJQsCoc2bkOOFNHnIPEaLlyNhejiAd8avLgib0nC88KtMa57GaQuOWs0+q47assBKeIJnub2LjzNMVvGWNZIr/bR1J4dqGXD0pRfJnycuyHIyK6sG7XuNo62PjL0jJwoOjqqOlkkz4H7OF/EgdquuEdKzcuNSqKIjV2pmMySPObfz7a5Rzlz3/UQdZRGVbdIngP38RAd2tKKe9lbQiRF0MauxUhm6UHz7+fgPTFhSVcnkatCRo59dlOs5kmWd8Wsoa/yCSSv9COdTtA8mbtwgJchid48ekSROtd/EsXHxFKGcy+jHtHD1zq/oMlRvr5KwUdvc4VnDLFnKaCuVdoAoqAX/X4zw0+l4SWcph8rK8i88Uy6nc2xS24WezaA6lqlCD4BAkQq6PU7ZX8R/UiVFebUeOZtPR4AJEqIiaKo6Dg9foc+/l5UnOaJT2OEKlR684ge6V7ZZ0JJd2e5kZlYkDpvzMGlLFI8xcRm8sHKQpskJcRQVFQ0xen3YTA8KZ5ioqIoWt83IiXo/XvKf2dQI4Wcyv9wjOI1T+YyeW+INv4k5n3rh5YNq6BsmdIoXVqfowwq9Vir27ygxAfYM6E92o8OxnPSPKnh3VVsGN8VbpUroXb9GihZsgH6LruE9PKWJz4OxsQePTHn5OtsHZbJadLLf7BunB9qlauFLyfuT502ghmGZT2MWT4ebrapv9aqN4cwrt8sXM7OYUqzuuj/c194FniFG1zYH1jWG4Pl492QuohUeHNoHPrNupytiXDN6vbHz309UeDVDd2/j9K/mO1ZCAWqj8Jxfd5s9A70LVMA9q0XaZ7Rj/IGFnesgAKFGmP6FUONjyXiwZ4JaN9+NIIzrex1pIpAUNAFKK0aw9fDRvOs0b27ugHju7qhcqXaqF+jJEo26Itll9JrkbLSJkn4d7YnChWojlF6fRiMIGoH+pa2g0OrRXikxx8h/TsbnoUKoPqo4zp+9yQ82huEK1YeGDKwUe5PlaIZ8eUZcVdpasP/hjtk5PTVdNqweTNt/nBspL9XL6HZ4/uRb4X8yekbFFQr4FLGPWxEJL0+QdN8K1L9odvpYSYXR537g/wqlKQmIzbRzZjkn12YRd4OztRpbfrpGaSIQzTeqx51nH+W3qR3gQlJCj9Dq35sS5XsZB96lsw85lNOjpSZtiS6+bs3FUyTOsWKXMefpuSPKMtJSTfpd++CaVOnWLnS+NO5vISUt2hafQXJSg2iw3p0X7zd1JWKiPnIY/4DzVN6STg1iirKQYJZY/otTPdeF62k13Rimi9VrD+UtmdW2evj1Wpqm18ki+a/Z3NdF0Xn/vCjCiWb0IhNN5O/71F0YZY3OTh3orVa3syntUlKujWtPilkpWiQPh8Go4ikwK/tSZbPg+bd1/1zobw1jeorZFRq0GHdeuPeHiD/8kXIc96NTOOI3CDvBngUQ+v9bNRBg2hPPbZmkFMq7gYtblOMZLJSNOhQxsUoReyj4a4OVHXAbgrP5IMeeXIqNbO3owbjj9PbVGfi6KB/SVKUGUghWsYipYg95F/FkZpOPqnxuyYk6gjNGTqG5ixbRlM7lCOz5PlhHOAZmbbca+ZV6YdDOThcxD5Q3ltBbR008mtBIPOqP1CuLqJPCvDe0PpOhUi08qYFWfriS/RwXjMyE0CK6uPoQlZbWCmC9g13JYeqA2h3ZpW9niI3daFCooIaTL+l51B2VkTSyanNyN6uAY0/rtGqxB0k/5IKKjMwROv0GP3bpNwU4BFFb/+GisksyH1WmM73XK8AT3pF+wZUoVLtV9FdXf+BHJZ3A7ykSxRQU6FuuOza0f9ea16QWlLoaKrm0I0CM4gDKeY8zfAoTDb1J9P5TEpb+fBv6lpcQbbuv9G1dCqatytbkYVYlHrt0P5EHnPyJ6qRryi1Wnw7TzwNZIUybCY1VnCAl12kJ39TF6ePvab/BRCKcv1pzyu++TlPoid/dyGnlItBAIKgoHL991CuLaJPCfBeraUOBUSybrGYnmbp74qhwG6FSISMSg06lHmDnKEYOj/Dgwrb1KfJmVX2eoul3X0cSaaoQeOyHIXqSkkP/+5KxRW25P7btXTak7e0spUFiUV7UQZNkp5tUu4K8ChmN/VxkpF5oxk6z/vVPcBLorCV7alS4wA6kZsfwDTkvTl4yVRPDuPoTSUAAZb1feFpp3lFamKRInBq0AxuWvdefIfD43pi/AkH+M8dBdeMBtelu1jy3SBsfF4B/jMGo0o6K+At7GxhiVc4dewytKXKsWr0EyZ3UWD/qJ74JfS95mmTIitWHI4WKXNEMGMSnTpj/p9pc68lha2A/w9bOTVGjhPh1Hk+/vymJFIXURLCVvjjh63P9ZwPlVup8GJ3IELeWaOZX1sUzUqLk3gVZy+8g0osBDfPelma//Tu8Dj0HH8CDv5zMSrDyv4TJIRi/6EICKU80SK9xsEIpLtL8N2gjXhewR8zBlfRSO0BABaws7UEXp3CscvaWqQ83iZZecDvS0coz29F4B1J82wWqPBi/0j0WOaM3wInoLGt5vncKytftxykwsuDwfgnkQDBDLW9vWGf2V9iWR8Dhn+JIlquiz48AQMW3oKl1xAMrJ/RDpEqPF43CpODI5G/xTAMqpd+5aCKi0MCSXhy5w60f00K4IshvVE1PhSzRvyJ64aaM5wbieawMOcAL/toy72mxKO/h2DQ2ocwZBXIPoFoj69mLcJ35c1SJ6lWPsLfQwZh7UMTKCHVS+zecghR+T3QobV9lhocVUQozt+XIFg3hGcTK83Tuos+jAkDFuKWpReGDKxv8P2AEy/tQ8hjEZX8uqK+meZZI1A9xrpRkxEcmR8thg1C+k2SCnFxCSDpCe7c0d4i5e02yRLNOrWGi3QBWwNvGmyXibcnJqPrxGj8sH4OvszSE0r2y1vv9oN3CAk6hfcEQF4VXr7F02YJV0Xi8ePID0/Bon0jtHZ3TP8Plu5g2aQVuJ2UHx5dO6B4uhcliz2KmVN2IUJwQNs+fnBK91oJ4c9eIJEISZFvEJnBo7i8ake0qy5H7KnZmLDBVJ7a0yNA4PgumxWA7/SlGFrNIlUAAek5to/wx9I7hqoC2Scr4IvpS4eimkbvtvR8O0b4L0VeLyJVxA4EHolBfg8/tM70KTxjcedCcSUJMHP1QLMCmmd1JeHOsklYcTsJ+T26okOGlf2nUOLm3mCEyVzRtXutdHrSDC/26ExM2RUBwaEt+vg5aWnjwvHsRSKIkhD5JlLzbCp5uU2ycOuE1iUJV7ZtNkhw+u7sr+gy7BZ6rFmEjiVSRxnKZ3swesQKPMzFNyjdz0KuF3sUQcejoAIgL+sJ3/Jpv0Zvd47EwFWPdPpwvj8yH3+eiAGsGqKld0Y1hwpPN8zB2ntKyJza4mtfbX21StwNe6j+tyUlJNI8n4K8Itp8URly1UvsWbIOYSbw0M5yERt3TFz2I+pYpQ4gVK+CMKb/PFzTPlrDsomN+0Qs+7EOUheRCq+CxqD/vGtap3jkfio83b4Fx2ILwLvTlyikeToF6cVFbF00HVNnr8LBO7GapwEk4trZC3inkqNqM8+0D9aJL3Dj6HZsDDyI6xnlfHl/BPP/PIEYWKFhS29kVNtDikX4zdPYt34xZowbjxXn0kkz8u4m9i6eiOHDpyHwRiyQeBEbt91G6X6T4V8pTbeD4ameYsOctbinlMGp7dfQ3iTdRVhyJCIpM2lkDNwmJb65jeNbFuGXObvwKL3XUr1F6KrxGD5uOU5nVHa6MG+ITm1Kg65tR+DlrEV4787OQIe2AbgQ/wLrB7eGr6/vh8OrSU2UrNAFoSW94KL5WcxNNCfl5QVxB/qTiwwEyKjkwJA0kyOliD3kX7UqjTipS5rpGNrdx4lkAClqBtDFjGaWJl2jKXXNSICMnPru0boaiZR36bfG6gUgZt4LM12NG7ezNzmIIEFRiwIuZfQG8rC47dSziHrVIC+yyG7xdPnXJmSbJnWKNdWfGKr9c8yyT/xl+rWJbdqVz9b1aWJoLiohfRZZSA/o9+aWJBbpSpsyWJaZdHMptSthlrwgSCDRrj6NPxqV+iLpEf3uYU6CvDwNP5G6XpeebKehdQqSTBBIYWNLdhUG0QGNX/9PzO4+5CQDQVGTAjKo7JMuL6Jvmtelys62pBCSFyiV9af9KSbYJ4RtoO9qJGdyAMis+Xw6+seXVK7BODqaTRPxk65NobpmAkHmRH33aP+cKO/+lrzIzYy8F4Zrnk5DtzYpg0UWCZdo9Q9dybuWC+WXqxcSCYqqNDo07WslXZlErgqBABk59tpBWopOZwmnR1FFuZyq/Hw204Ui2hZZKO8tpzYOmovUNL6bNi1pSdZWDRldbo49tUjEP/sP47kEQCwMd09XyJRKKBPjER1xF6HbfkXnJh2xLLIRvGvrMAEi4QR2BoVDgoB8ZSqibNrOwA+UNzZj26UkkGiLJj5NoHW9RsIlXLolARBRwNlZI6lpWmY1qqOiHKCkawg5wHOjmKGZo/qIpZjiWTB1lz3FIHRGP0w+EZ3ypywnmFfHiKVT4FkwdWVBMaGY0W8y8mIRSQ+3YevpBBTx9YOP1kVwMdjz63Q8arsJd55fxWwvG1BkKObO2IDwlJ05cecRejUJon0TNK+Vol5XvcCm4f3xx/lI5G82A+eeP8OedhE4djO9fs8EnNgZhHAJEPKVQcUMKnt59e+xOiQU1x8/xoVF7eAsIyTdXYMZq+5CAqB6GYRRHX7EhbKt4FHGBmbm+VEcx7HqWXfsDJkCd209aQalxI3N23ApiSDaNoFPE60tEhIuXYK6SSoAZ+fM31yW2yR5CXj0n4Klm7Zh1YjGsBMBSrqN4P2307yWYF0IBfMBgISXF88jLGsdbzCr0xHtKgq4vX0zzqX3MdCBrFQf7AhXQqXONJLuoYrai+8cM2ncc1jufnfpUd5AUMh99QRKVQTWtLeDQqGAwjwf8hcti/rtRyPwTjzs3H3QSIfZs9K987gYIQGQoVipEtAeEipxLXA7riYRINog6uw8TJ06Nd1jSsBynIhUAZChTMXKUGi+lAbRvjicrEQASlwPDU13B4zMKP8JQK18CvW9MOBhXmYQDumW4pvlZvKKGLBkJlo5aAQQcVcwt99oBL9N9WOWA+QVB2DJzFZIXUSEuCtz0W90MPJWEUl4sGUrziTao2VHH2gPKRLwVuWO4RPbomzRcqhRzg4iCPEP7uJhioY+8fpZXIgEbBo1R+MUcYwqYjvW7H0Blaw4uowZiBpWlqjo6o4y9ukMj0r3cP5iBCQAsmKlUEJ7ZZ+CDar2nYWR7lYQ6D1ObdmGB4n38Vf/n3D/u304Hvg3QsKikBD/Dv+GbMaqaV1QUXucZVjKawjcfhXqJikKZ+elbYvUxxQELD+hngsuK4OKlTNrkQzQJol2KF6hDEqWdUX7iQHo7CQDoETY9etpdoyQlfLHpmP/w9DGhSEv7KDx+f8E8lro1K4yhLCd2Bz6iRGeicjqrcx20t39CE5Oj2LRZDKOX7uO69ev4/q1Szi9bwVGNHOAXLBGY59m0GWDmKTr1/GvEgAEWFvbaL8h0gMcCLkBJQDRWo6IE3uwe/fudI/ADUfVcw3kJVC3gUvaBSCaRAcULSICIMRcu4gbn/KZNLNBkWLFUMzAh6O9XepVmCzPkpXqjYVzO8JJljp1SuLtpeg/YrtuW/gxI5KhVO+FmNvRCamLKBG3l/bHiO0ROs0pzhWkMARuC0VS0S/g52mteTaFQuixfCk6FwCgeoPb/76ACgJkxVzg8qGDTYWXoedwV7JAvebNkD/Fb0cfC8GZ9wTRrhE8G6ojq4J+g9CrZDq1btJ1XFdX9hCsrWGjtbLXICuJr9rWhblASLxwAKtmDsbiwlOw4vvKBl+Bqw/pwQGE3FACEGEtj8CJPWnbIvURiA1HH0HdJNVFA5d07o0mQ7RJ/7Goh4a1zCGAEPvkoXr0LRURdjU6oE0te9Rv2SLrAR7kqNqxHaoL97Bz0+k0AeVnRXPMNneT6OHvHmQhgCCYUaMZaTfJlp78Th52nvSHjpO8Xi1pQeZQz01wn30/3a3FiIgoZiN1thMIEMmxz5408/4+ek1r2tmSAJDMqS/t1WVv7aRLFFDrv6TNXWmz9qkUeZeh5+AlRNKL8Of0/LlhjvDwt6RLUeV5Ujht610qeV5RivkkshL03b4MMqCybCOFb6PepRRpklTLSnxHOV5EOs7BU16fSvXMZOTSb5/uczzjdlLvoiIBcio/4iR9nGkXS9t6FCFR0YCm30pZ4ycnFAZI4fZb5rsLvFpCLcyT58u5z6b7etRBSZcCqJYCBEEkRelvaccLPX7ZSGI2diY7AQTRkfrsyaAwXq+hdrbqOW5OfffqVs/p1CZlMAcvlXg6PLg0yQCSlx9OGlMoiYhIeX8Jtar8NW1Kc18lenNiDvXp3J8WnctolwINyus0pa6CZCUH0MEM/mBtc/BMRZZj5WyleoXgoHNIIADyKvDyLZ2md0y0KwQHVy946zQ2rkJ0TOyHp2KFeboJhAAAUsQjPI1V592r4lpb+7BrzFEEn4wGQQaXNp3RVJdHPMEc5skvSHHRiE7SvIBpSjj6E2o7pe1x/OSjQn/szCg9lBbR0dGoWbOmQY7jx49rvrzhiQ5oM2sR+qXKvSYgX42u6NE4C7nFDGT58uVp7ktuOVxdXTXfrlGIDm0wa1E/lE/ZdS7kQ42uPZALikgHStwM3IaLkgtadW6mfa6yBmXYRVx5rQKEfKhSs8rH6TLK6wi9EAmxfDM0L5Oixk84g30hEZAgRwnXenDWbAw0qKJjEPuxstcrUbK8YhPULyYDSIDzFz3gqy2haraREPHoKdRNUhW41tbaIiHmaDBORhMgc0Gbzk1163U0aJskR9GiRSACUL2KwAvNbmjVc2weMw/v+45DuzT3NRHHl03Hqo3LMWNVqO69cbIK8GtfB7LHu7Dp6CdU7CZC827mblEhCDr1HgRAXsYLLSqlnSQrvUxCuTYtkbIeyIi5meJDQ6eStM/upLeRiAIAWSnUqq0xWT2F2MO7EPJaBUFRFd2/ddexcqMU/62CKuX/snTJnN3Rs//3+P57Ax3feqNM2o9TpgRBSBssfuJhnsEDhiGJBX3x62J/VEjeQkEs0AyTV0+Emy5zGozM2to6zX3JTUf2EFHQ91cs9q+QvMuFiALNJmP1RDedpp3kPAGCKAKQICk1W3PtlP/ewf3kqS0VK3yMZFUvzuHcXRUcm3iiRorvaMLpbdj3WALEImjiWSeD+dPJzM0+7hqikvRLhGvuigY1LSBAwpMLoXiSZpgxuxHeRkYBAGSlaqG2xuKcj2JxeFcIXqsEKKp2x7fuurVIhm2TZHCwLwhRAFQxLxGhftvJVHi2eSQmPe2JuQMrppM30AI+Py3EpJ+nYv4Id72CclKpFzrKZNruzWdAs0svN4vZ8Q0VFaFOjzIgbXoUbZQxURSjZb10zPqOlF8AAQpqME37xtAJJ4ZTeTlIyPclrXijefY/b2lzN3sSIVLhdqt133cx6RyNqabuDhcLdKPADLqU8yxDD9GyLIilc1MaUn4RJMicqP1f97V+7lkOiT1HUxrmJxECyZza01/3c0kJ6TpEe3M6NTSTkVOf3aTrqPLb5V+op8uY+9KSFx9/Hru9JxWRFaKum1Mm0IinI0PKkBwg0aE7bdElLUnMeuqYX52yQ9FgGqUa7c2E9GITdXOUqYcs87ejNVrbgOySQCeGlyc5BMr35QrS+nbebqZu9iJBLEztVj/VPgVJk05tkq5DtERx23tSEREEhStNvPKxMVY++Is6VPaiudfTGbfNiqQrNMlVQfLSgzP+nPIQbW6RgDP7j+ClCoBoD48W9XWL5uPPY2rHH7AvvdyZABQlS8JJBgCEd5GRaZZw/0e0toaVAIgFHeGo5SFI9WwL/tr7CrB1x+hfvoZOo8QAoIpFdPLYgWjvqPvvpaB6exX7N23Ahg2GPTbuOs+T702KCm8OjsY3U88gihQo12cxFnUvmWaqA8tBqjc4OPobTD0TBVKUQ5/Fi9A9vUUDuZisnB/a11MgfG8gQnRcgilXyCEIgCC3gvWHDjwlboReQGS+BvB0TzE+nXAW2/Y+hBIylPTrjS+0L9P9SFESJdWVPehdJCK1VfZpxODEjIWIa9sBJWUAxZ7DyfM6DBaqInBwWi90GfIXrutwuX5EWFtbQYCIgo6OWkaKVHi25S+om6TR+OVrLTs5pccAbVJKYhF7FFSP0eLFi+Qbr7yDZQNnQTVyCQZX1tb/qkLC63u4eve1XguMlNc2Y+sVQqk2HdFIp0DBRGlGfLlWwkkaUUGufqIo2Ik2ZJA486NoOh1Qn0p130JaH/Ai11EHW/XiiYJfb9E+AfXNSmplKZC8/A90PN2HjQS6EFCLzARLqjvxvH5PA7Fb6OuCIgEC2Xb4W/t7zUDS+bFUTZF64rwhDlkJfzqo1x+jRaoevHncg5dDpCcbqFtxOQkQyMp1LJ3QY94yyw4SPdnQjYrLBYJgRa5jT1CuKiIde/CIlHRvbjPKJ3Og7jp1rxHFHxpIpWQgwbwVrfzvV6RntMDLgszdZ9O9FD1uMQf6U0kZSMjfjObo3BUXSes6qBfAiQW/pi1aK/vUYs8EkMeX8+nWmw3UyU4kQEG1J1zONIkuRf+P2lkJBC0JfrPqzcpWZCnIqfwPx1MsSEkh4QIF1DIjwbIuTTyfYWGlpVObpHsPnjJspjrRsmBDHf6OUSdfn+lJdfrvooh02gJl2C76bXhXalzSlhSCgupOva7HKEMSnRtTlRTyijTqVLp35gPuwcslEi/txL676vQolg294ZFyrXy6EnF37Xfo9utDNOngrT0Pk00TNKtjAQEqRN8P0z63wsYVrhXloPexiCXNk4D0cA0CFlyFXYuZWD3aVbfexWTSo1sIi1YBggVquzf6pHk2on0jdB8yDMOGGfYY+m3zFOkKsoJAyY9glKSEMp17yIxMeQuL+gzChkdKCAWbY+pfAWicUQYLlu2Utxahz6ANeKQUULD5VPwV0Bh5s4hkKNG+AxqZv8T+zUHIePdTNfNa7qhnJ4JUDxCWnM4E8ecQekWFSs088SG7R+J1LJjyNx6qLFBz8HT4V9C1d9MGTZrVgYUAqKLvI0xrZZ/Cu6OY9ONZfPHr96hg2wANayogQImbp0+qR5MAxJ79EzO2haftYbL+CgGLA/Dzr3PgX1uHSlQVg8dX/sHNCN26+2xcXVFRTngfG4u01amEh2sCsOCqHVrMXI3Rrvq0SIZpk1KSFbZHIbkAUAJev3iNmDPTMGx/E/w5qxXS26JYVqYVRs5ehsH1AKW8Arx8yus+ypB4Hpu23gJV+Ap+dbX1DBqXKuYxrvxzEzoWpfFoRny5UzydGlWJ5AABCqox7kLGT0+xYbQzwIecFQKJxXrRjgwfgSV6uqQl5RdAol1n2qj12iQ6P646KfI1p98fajxyKO/SynZOZFN9KO1Ls8w7czFbvqbCIkiw8qI/NV/bVMSspXaWyfNfak+gyxkWIDO8GDozoT7ZCOp5dx3/90CPJ2KWLWLO0IT6NiRAIJlTR/rfg1xYQjr34BGR9IQW+liTWNCP1r3WPJmeaDo4sCzJBTlVGH6c4v4bmTAvQ0OOJPfESG/oyOi6ZCPKyMFnLl3SsRfuP9LTJdQyv0AQ7ahzepV95L906uhlCk9Qv/9NPWtQ89+uJveQJdDZnyqTHCDBrh2teUWkfLCRent8QxueZLHeTrhBC9s4k5kAEuRFqOmEo/Q6s5dMOk/jqisoX/PfSbPZUN5dSe2cbKj60H30CU2Sjm2S7j14FLeb+hRT935WGTSXhnp1ppVhmXy+E87Qj5XkJCs9mP4rfl0kHP+ByssVVD2zOMFIPXgJNxZSG2czEiCQvEhTmnD0te5zHw0sTwR4CTfnk5edengPEKmw90TafuIcXbp8mS5dvEDnQ0/Rkf07aP2y32jsd23ItZhFcg4pGTl9uyvzSb6vN1DnIiJBVoL8g7XXGNKj1dTOwZLqT7788cMQf5cCB7hSSfdxdDCzTWfTFU8hA0qSDCI5dF6fbne1KYg5OowqyNXDvoJlY5p21VBfJ5Y5iV7tG0gVzQWCYEYV/PfSKxP9nOVZ0ivaN7AimQsgwawC+e99lWONQob0CfBIomdLvyAb0Y7arUmxaiID0ovdNKCSBYl2DWnskRf0dKE3WRbtRTtiiZSvztHyvrXJTpafqvRYRpfTic8y95o2dC5CImRUwj849ZQc6SmtaG1HoiCjQq5dqX+7mlS7zxZ6lCIOidvbV72XrWBBFdv1oS9ruNHoo1rmC0mxFHH7Kt17k3lJJp0bk2qKjaAoT8OPZ3aDJXq0uh05WNanyZc/Xht/N5AGuJYk93EHM90HPX26tkl6BHhJZ+nnKnICBDKzq01D92f++U66OolcFTJy7LNb91yKFE+HB5chuaI2TdChF8HwAV4SnRtTjRQfpjkJpCg/nDItSiPJxQFeJB36rQ91/aoplS8gz3DTX62HzIn67Mk0vFPPn5tYh/IJ6XzpU5Ho2Z7hVM/ekep0HEDDB35NvvUaUvuAbXRL909gavFHaWg5OQkWrjQxg82v8yTpFe2b2pM6tGxIpfOn3LhZIJldWXJr3Y3GbX2U6RedZY30cB11dlbPu7OuG0CndflKsGwk0cN1nclZLhAEa6obcDrzh9KcoleARySFr6Q2tiLZtlmpc7ChfLKXAr4sQ9YWRam0kzXJi7pSC+86VNzWjko3/ZZ+3R2mR4OfVsKFiVQnn0CyEv6U6nleiqB1HYuQCBAEa6rQYzXd1uw5ij9FY2rkU/eyFnGncQfDNeqvJLoeOIWGdqhLztYKEiw8aL7WHrCPpKcrqU2B/zoxQIBuPVAkPaM9w+uRvWMd6jhgOA382pfqNWxPAdtuffo90rlN0iPAkx7QHHczgliQms9O0UGilZLuznIjM7Egdd6Y/gzAdMUFk38JGSnqTqFrmXQQklECPImermxDBcQUcYiiOo27kNF9NJ5cHOBls6iDNKi8gmSOPWir1jXnasoXl2nf36vofztO0K1XmjWAPiR6saEzOcjMqdrIo5QyCQBjBpFwneZ5FSIRILGQN803dDoClmUJ1+eRVyGRAJEKec+nXF1EegZ4RC9oTTs7Em2+oGXPMg90PkqgiAvzqY1DPnL9bikFBp+lW+GxBnoYjKKDg8qTQuZIPTQr++jbFLz2L9p84r7WIDvpWSht23SAbrzJIIJ4tZRaWAikqDOFrmdw2UcSvb4YSAvmLaXdl4/SmBrm2hdPpKGkF5f30d+r/kc7TtyiLDVJerVJegR4FE3/a2dHZXoF6pY+THpKC70tSbRpTSv1GGOO3duPnGVm1GD6TZ2moBg+wCMi6TVdDFxA85bupstHx1AN8/L0Q/orM42OA7wUoo79TLWtLKne5Es6frGyKPY0jallQda8mpEZRTSdGl+HrAWQIHemzuseGqiBZAYTfYrG17FWz9dx7kzrdOjtyVF6B3hEr9f5UUHRmnwXPdHr85d0YRzVsMh8JeQniTpGP9e2Ist6k+mSEV4+7kB/cpHJqdKPZ/RvS+IP06DSdtR6hWbvYDbQq03SPcCLuzyH2n05kU5n+prJXq2mtvlFsmj+ux4ZF6JpZ29Hkpm70cx/dQnvjBTgpRB/eBCVtmtNK3TtvjawdNavfL5smkzC2jneeDZ/COZdMfbyl3c4PnkAFrxrjyWBk3g1owmJPzkP3/q1RMMqZVGmdGmU/nCUQYU6XvDr6Y8FZ+M1f83AVHi5ZyR6zfgHMTBHhf7LsKBLcd3zYOUa73F8Rkd41quKcmU+3suyDUbj6Kd8RZV3sLRztQ/lUqaCKzw79MB3845DS6pM41G9xJ6RvTDjnxjAvAL6L1uALsXzXgllpuAXHeFT8D2OB27DkzRLTbVR4uq2XbghlkOlikZYCWnTBJPWzoH3s/kYMu+K7ltg6SQRFw8cwXM4oql3zcx32EhFhRe7lmMn/NC/nUM2f1+N0yZJDzdh0A+X0OHPcWig42u+O7QfJ2JkqOnto3sOvuhgbN4bAbOGHeBXSuc1t8ajeoFdy3cCfv3RzkHXP8LANCM+FkuX/mhD5Wv6087nxoq6Y+nqwrZUpmJXWnFd+4w/lrfFXZ1KDS3UK4cBkRx8Z9E5PaaTZIXywRryc5KRAIFs6k+gs9rGm/KKpKd0aPqX6vxwAAkWGe0oo008XZ7hTnbJ82PEQh409VROrXBT0oM1fuQkEwiCDdWfcFbrkGCu8gk9eESRtKW7A8nyNaO5KZPZZSTpIo2voSB5xZFkjA68/8Re+oPalK9J/jufG+5zkHSFJroqSCzyNW3RtceKiIgkenX8F/Ku0IjGHn5juPejk09pkzLvwVM+3Er+7j40+VTGg72pxdLuPo4kU9TQa+7a201dqYhoSc1/f6DzvTNaD570io7/4k0VGo2lwzossjGWHAorczNL1Bi0BQenFcayngOw7paBNypWvcDhCW3RPbAq/gz5H76trNPWzywPsihVBk7JG3YLVm4YNX8Y6mhNyGhACVcxv/dQbH0qQSjsg+mrx6FentikPgNyRzTxrgU7gQAAJD3H4yd67SaK2DPT0GfycUSq1Jupuw6bj58aat9X2pgSrs5H76Fb8VQSUNhnOlaPq4e8XkTa2cLHrwXsE89g65YHmifTpby2FTtvKGFWthIq6NcFphfLGoOw5eA0FF7WEwPW3YIhanvpcTBCrilh3cgLTXXssVK9PIOlw9qj/ZQn6LJhL6Y2K5B9n0tDtUmqNzg5pweaN+uLNfckvL+xCt+0/RWKH//C2IZ6ZNJLCMX+QxEQSnmiRRUd8gcCAN5i/+YDeJ3PDX5fuWTfvUtDhZdnlmJY+/aY8qQLNuydimYFcu7dcA9eBhIe7KLxwxfTdd0fIjIVd2wWDf3tMD3T8UGW5V1JlwKopkK9ajif1596zCXJiig6Pro2WQogQV6cum3Qb96TIb3ZP5ZaurehaScN8WyspJu/1CeF8N8KeUfqs0eP130bQsOqmH9YyS2Yu9FvmeXhMpao4zS6tqV63l3xblnPofbJ3tD+sS3Jvc000rmIlLdoRhMbsqwwTK/cZBSzh74raUn5m83SPJMOJf37a0NSQE6Vfzqr/xy2T5HwgHaNH06Ls1zZS/R8SUuyEiyo+e+6ZwhQPjxJe888NWwvko4+vU1S0q0ZTcjGsgINO5JASZcCqJZCIEBGDjUaUaWyjWnU7qc6LXZIKeHMj1RJrqBqY85lvor4P6/XU5ei+ahQm2Wkz1oe5a0Z1MTGkioMO2Kgz5mSHp7cS2ee5kRJpsUBHmNGIdH9uU3JXABBMKPGM8P0ruj0J1H4jj5UViEQBHOqPCQ482SpxhJ7hsbWMieZYy/aoc/ojDbSA5rnYU0upVzUCc8Fc2qx9JXmVemTXtDOvuXIrnRZKiZTB3gK10l0VefWw4CkcNrRpywpBJBgXpmGBOfUEDFR7JmxVMtcRo69dmSyWjL7xVz6H02auISOG22ajLG8pb/97EhU1KWpN5IoMnQfHctzf8OnkR6toY5OChItilDlL36mbXc/JchJoksBtUhh3oCm3TB+jWnqOMBjzBikcFr2hbW6x0hRiwJ0SLqZVcp7K6ldMRkBAuVvMIlCPzkRVlZF0bEfa1I+QUYl/YM/PR9XClL4MvrCriaNDGhH+QV1nrCaARd1eMKX6MnfXciliCdNHNuCbAQQ8ImrG7NMSfdWtlMHmUJ+ajAp1CD35pNEHaMfa+YjQVaS/INz7F2Ynvh91M9JRjLnPrThyDzyH7Ge7n9GcYoU85pexWQhoE0IpdHVLKnCoAOkJX0000MODg4zZsLehSDo1HsQAHnp5vCtqOtckk+UcBmzew/HjucSxCIt8OvqMahrqXlRdniPK392Q5c5lxEnK4P2X7vDEG/jXch+nLVvhi+alYCDDAAkhD9+gsxm4Ul3V+D74cfgOmMOyv0bqt5HWuYEDx99VzdmXcLl2eg9fAeeSyKKtPgVq8fUNci90dv7K/izWxfMuRwHWZn2+No9R96FaUqKRvR7gvRsE6aszI+Bk7ugZC5Y0JldRKuCKGSlR1iheomt/SrCyW0aLisTcXv5JARaDcfSqd6w07yW6U2PkmCM6Sr2aBCOR6kAyFCsmS9qGzWaeIej43th4rFIkLwEui1Yjv4VjBxQpuf9HWz+wROew/bgmRJQVOmE7vUN8YfH4mjQKVg29UW9Ui4oJgIA4e3Tp4jSvDSlxOuY3280rnrNw4KOD3HweCRUAMTCzeDTQL/N17Ps3VGM7zURxyIJ8hLdsGB5f+RMEW3GD56eGLbnGZRQoEqn7jBIETE16w5YePIojl8Jw4W/eqMKx84ZEy1h7+yMgriCv34ajN+edMfOkClwz47FaJ8DzS49xlhWxdGB/i4kAwiiPfXYqleuBD1J9HxrbyqtEAiCBVUddpD0zh6SRfHPL9C2Of7kUcLy43Z0ghnV++W6YeYdxh2g/iXsqdvmKKLYTdRFvZSWFNXH0XmtY7SxFDqxPhUo35/2vJIo/tBAKiVTp6ux81uXvcM/0nPa2ru0et6dRVUadjDbS4ieX9hGc/w9qITlf2l7QIJZPfpFt20WGGN5kEBE6rwDjDHDSDyJEdWaYc4dJQS7dlhzdyu6F9S8yDCUd5ejg9v32BkuQSzSHCOn9EAlY3ZOkYSkhPd49yocD8Nu4sa1y7hw5T4ik1JXI0K+pph9LQQ/lM76+FTiyRGo1vouxvy7Hd/YnMao6u6YdVsJ0f4bbHu4Gm3Syerw7ugouH91AD47TuA3d3Oc/akm3GbehFKwQsslYdjdr2g2DV8ocXd5B7h9vxPhkogizUdiSo9KMG4RJSHh/Tu8Cn+IsJs3cO3yBVy5H4nURSQgX9PZuBbyAwxQRIyx3Egz4mOMZU3SxfFUIzk9iqXvIr2W7esl7gJNc7NVb46eqw6BbFosJsNk/0iii+NrUn6vP9WvJz2i+R5m6n/HzIsWpLNCUXq1h74vX4DqT0xexJB0lSa5KggACeZNaY6uyXYNIO7CNHKzTbmJfC45BBtqsTjnUugwxowvex5iGftsSLi7Pxg3lQAEBWp7+8DeKN+ySBwe+w0mn3wHnXd/yi6iLby6tkueK5dF0l3sDw5DVW9vFBUBiEXg7Git7n2jcDx5rPHXq55hy9AB2Ow0DstHqxcxSI+CcPCaejmGvJonfIpnU5dV5GGM/WYyTr7LdSUE0dYLXdsVy6ZeTMZYTuDvN2OGpHqKAwcuqYfD5NXg5VMchg8nVHgWOATf/n4N8aR5LueJhVqiaxt7g1QuqqcHcOB6OXj5lk6+jyKcXZIDkzS7WUi4/9dADAuphmnLhqKqGdR7ewYH40IiAZCjvJcvymktEBXenpyLvl2+x+LzMZon9aN6hsAh3+L3a/HIfUUkolDLrmhjnCcPxlguwXPwGDMg1YsVaFOmH/bEEOQVR+H45ZloYPBVigl4ejkUYZG5r2cIAES7cqhXw9EA88xUiFjRBhVnVsDuq7PRODlgC1/ogxIDQ5AIMzT/4z6CBzlCBKC8+TtaNp2FQvNP4++uTskB5hv8r30ZfLMtEiQrhUHBN/GHh7Z3Fo+dvYqj3V9vUHzAAdxa0PzT/4aEp7gcGqbeFi3XEWFXrh5qOH7yX8cYywM4wGPMgCLXd0Lp7pvxViVDCf8g3F7o+elBwmcvEus7lcXPBdbh9hJf/LeWIn7HNyjefg1equSo9OMJXJpRH2bxF/GLpxdWV1qFk0vbfBwWj9mKHqU7Yu1LFcRivbE9bCVaZ5C6Iv5mIGatCUP1fiPRpnQO5DFhjDED4T56xgwmFseCjuOdOtkamvo00CG4U+HtvTBEZJax93MUewxBJ+Rw9238IbgDALmzC4rJoO7Ne/IEKsTg5KQ+mPWuJ5bMShHcAYg/GYQjb1QARNi6+aBJBsEdAFhU8sO46T9zcMcYy/M4wGPMUBLOYP+Rl+pkuvnd4NPUSvOKtN4FYezQ1Xio+XOGhDP7cTS+EXyaWaf6uby4C4qKAgAVYp89xr/7f0bfxSIGLZuK5qnS3yfifNARhEsABEs08vFA/pSn01Ah4fU9XL37OvctXGGMMT1xgMeYgST+sw+HnkrqHGMNfOCZaTb29widPRHna3yF2txhpCER/+w7hDd1veGpuWeRjTOcCwgAAOnfdejz3XrYj16JcQ01AmrldRw4dB9KAIJ5HXh7F0m3wpPu7sasEd3gVqogbIpURJ8NEblwYQRjjOknvfqOMaa3RFzauQ93k9Oj1PL0QpEMv10qvDw4Fv3mJaKFX01wfKch8RJ27nuEal4+cNC8j3JnOKvHaCE9vYD7VaZg6fDqaYbDlTd3Ye+N5PQo1b3h46z5QmqyMq0wcvYyDK4HKOUV4OVT3ggrnxljLHulX+MxxvST8A8Cd96BEgDEYqhe2ymDICEWtzYOxZedfsfNcm3hV5XDO00J/wRiZ5gT6jRwSXsf5S5wKSaDAEDm+BVmL05vX1clbm7diStKAiCDc71GGe/YkHgNF67GQnTxgG+NNC/GGGN5Dgd4jGVZIm4tCcCy28krJVQvcHL9/7D/1D+4fOUKLl88j9BTR7Bv2//w5+TB8KtXHrW6/olzkTJUb+uHyhxPpJZ4C0sCluG2FIfXEeklcraCs1MhiIqS6P7HAnQvkTZyk+7/hfELL37Yniv+9Qv14hctlHeCEBJGcPDwRV2Dp7VhjLHsx2lSGPtU7w5j1ohlOBn2D46e/Bdvlfp9lQRFXUy+eBrjqqQNUD5H7w7PwohlJxH2z1Gc/PctlAQI+ZxQ270harf9CX/614E69lLi+pSm6BoRgCO/+6Lgh8fU9zg5fygWHr2LS8dP4OarpI9z6YR8cKzVBA1rtcaoBYNQP9V4roR7s5uh0o830G79PWzolOnkScYYy/U4wGOMZYESL86tx6IDluj1cwek05mW+6meYVGLchh0xhPL725H74wnT+YhJlA2jLFPZio1GWNM9RYn5/ZFl+8XI6s7bWVOifDTKzGqTTWUb/gNfgm8grd59VHxbTCCzsbDrK43vAplR5WoQsTBaejVZQj+up6gedIATKhsGGOfLDtqM8ZYdkg8jmXTV2Hj8hlYFWqMwOEj6eFh7L2ZH3Wq2UPI44MA7w7tx4kYGWp6+8AxW2rE9wheOA1rNi7GrHVXNE9mmSmVDWPs02VLdcYYywYWPvhp4ST8PHU+RrhrJg0xLFkJb3z7rR/8vm2FvD2F8D1OBB1DpKwyvHzLpF2xaxTW+CpgMQJ+/hVz/Gtrnswy0ykbxlhWcIDHmMmwQCW/cZj+cxtk105bgpUV8qlzDudNCaHYfygCQilPtKiSTTcNgHXN7pg4fTi8XYwXgeX5smGMZQkHeIyZClUCXt+7iruvM8gHYmiCgLwcQyRe2oeQxyIq+XVF/WxLj6LC+xd3cO3+23RSwBhQHi8bxljWcIDHWJ4m4e7uWRjRzQ2lCtqgSMU+2BDB8650o8TNvcEIk7mia/daRt9NRHljC6YO80M9F1vYFa2BIbuiNS9hjDGD4TQpjJmC2I3o7NQV21x+xsmL01A3TbQSj+s7V+HwI0nzhE5kLs3wTduqsNT4uSpiEVoUH4AjlQMQem4Saqb5d3OxxHMYU6cZtjbdjjN/eENzy1vjeI1lLZ3RP6QqJl86g3GVZVw2jDGj4ACPMROQePYn1HSbjQT/ENz8vWlyQuCU3mBNlxoYdThR84ROzJr8ivObeqfZFzZPBRGql9javwkG3+yJvUdGwmJpe7T+Xy0s3z8F7tmV2zg+GN+Xb4kV1iNw4tKM5GFhLhvGmOFxgMdYnqfEtckNUHvyc/Tc8S+Wf6nZl2M8eSuIiMWJSW3hH1wY3vVtEWXugZHjuqBi9t0uJJ4eherucxHXdz/uLPKCMdc6562yYYwZGs/BYyyvkx4hKPgqJNsm8HHLxmglz7GC24SDuHpiA+bMXoLl07I3uAOUuH3gMO6pCqKJdwOjBneMMcYBHmN5nCoiCEEXlLBq7AsPG82zLNeQHiM45BqU1o3g1dRa8yxjjBkUD9Eylse9/usrlP42CHXm3UHwYBctT23vsPvnLph77tPmeSlch+DvmW1RUOPnPAyoO1X4UrQq+z0O15+PO8GD4fKhoLhsGGOGl35bwBjLI97h0P4TiJHVhLePYwZfaBnyFy2F0qVLf9JRqqht+rs8EKlzuUlKKDXPsVSiDgfjdJwc1Zp7oVj0Oew/Hp6cB4/LhjFmeNyDx1he9n4P+pZrizVFRuPs+Smolc29NMrrU9CgVgAuFuyFbfdWoU22zmnLSxKw/7syaLVSQK91a1Ht6C44/DgDXUqmG5oZBJcNY5837Q/8jLFcLyF0Pw5FCCjl2QLZuNMWkHgNgb+Oxff+i3FZCaheBOLHLkMx5e9/EKN5LQOQhOjo9yDpGTZNWYn8AycbL7jjsmGMcQ8eY3lZIs7+VBNuc+X48dQF/FInOyM8pi/V25s4dV2F8vWqwD5tokLGGDMo7sFjLK9S3sTe4DDIXLuie3aPzTK9iQUqwc2NgzvGWPbgAI+xPCrx4kZsu10a/Sb7o5KRRvsYY4zlTRzgMZZHqF5uRb+KTnCbdhnKxNtYPikQVsOXYqp39uyiyhhjLO/gAI+xPEK0tIezc0Hgyl/4afBveNJ9J0KmuCO7tlFljDGWd/AiC8YYY4wxE8M9eIwxxhhjJoYDPMYYY4wxE8MBHmOMMcaYieEAjzHGGGPMxHCAxxhjjDFmYjjAY4wxxhgzMRzgMcYYY4yZGA7wGGOMMcZMDAd4jDHGGGMmhgM8xhhjjDETwwEeY4wxxpiJ4QCPMcYYY8zEcIDHGGOMMWZiOMBjjDHGGDMxHOAxxhhjjJkYDvAYY4wxxkwMB3iMMcYYYyaGAzzGGGOMMRPDAR5jjDHGmInhAI8xxhhjzMRwgMcYY4wxZmI4wGOMMcYYMzEc4DHGGGOMmRgO8BhjjDHGTAwHeIwxxhhjJoYDPMYYY4wxE8MBHmOMMcaYieEAjzHGGGPMxHCAxxhjjDFmYjjAY4wxxhgzMRzgMcYYY4yZGA7wGGOMMcZMDAd4jDHGGGMmhgM8xhhjjDETwwEeY4wxxpiJ4QCPMcYYY8zEcIDHGGOMMWZi/g8GhZHopiKzOAAAAABJRU5ErkJggg==;" vertex="1" parent="MB20FCoI7DoMV8oSUzf_-26">
          <mxGeometry x="227.3" y="126" width="392.6" height="102.5" as="geometry" />
        </mxCell>
        <mxCell id="MB20FCoI7DoMV8oSUzf_-49" style="edgeStyle=orthogonalEdgeStyle;rounded=0;orthogonalLoop=1;jettySize=auto;html=1;entryX=0.5;entryY=0;entryDx=0;entryDy=0;" parent="1" source="MB20FCoI7DoMV8oSUzf_-28" target="MB20FCoI7DoMV8oSUzf_-34" edge="1">
          <mxGeometry relative="1" as="geometry" />
        </mxCell>
        <mxCell id="MB20FCoI7DoMV8oSUzf_-28" value="VQEplus" style="swimlane;whiteSpace=wrap;html=1;fontStyle=1" parent="1" vertex="1">
          <mxGeometry x="242" y="620" width="584" height="350" as="geometry" />
        </mxCell>
        <mxCell id="MB20FCoI7DoMV8oSUzf_-31" value="Hadamard Circuit" style="rounded=1;whiteSpace=wrap;html=1;absoluteArcSize=1;arcSize=14;strokeWidth=2;" parent="MB20FCoI7DoMV8oSUzf_-28" vertex="1">
          <mxGeometry x="34" y="50" width="106" height="40" as="geometry" />
        </mxCell>
        <mxCell id="MB20FCoI7DoMV8oSUzf_-30" value="Compute Expectation" style="rounded=1;whiteSpace=wrap;html=1;absoluteArcSize=1;arcSize=14;strokeWidth=2;" parent="MB20FCoI7DoMV8oSUzf_-28" vertex="1">
          <mxGeometry x="34" y="110" width="106" height="40" as="geometry" />
        </mxCell>
        <mxCell id="MB20FCoI7DoMV8oSUzf_-29" value="Compute l1 Norm" style="rounded=1;whiteSpace=wrap;html=1;absoluteArcSize=1;arcSize=14;strokeWidth=2;" parent="MB20FCoI7DoMV8oSUzf_-28" vertex="1">
          <mxGeometry x="34" y="170" width="106" height="40" as="geometry" />
        </mxCell>
        <mxCell id="MB20FCoI7DoMV8oSUzf_-32" value="Compute l alpha" style="rounded=1;whiteSpace=wrap;html=1;absoluteArcSize=1;arcSize=14;strokeWidth=2;" parent="MB20FCoI7DoMV8oSUzf_-28" vertex="1">
          <mxGeometry x="37" y="220" width="103" height="40" as="geometry" />
        </mxCell>
        <mxCell id="MB20FCoI7DoMV8oSUzf_-33" value="Minimize Loss Function" style="rounded=1;whiteSpace=wrap;html=1;absoluteArcSize=1;arcSize=14;strokeWidth=2;" parent="MB20FCoI7DoMV8oSUzf_-28" vertex="1">
          <mxGeometry x="40" y="275" width="100" height="45" as="geometry" />
        </mxCell>
        <mxCell id="t4PKV1QuwNsnvt7W0I-o-3" value="" style="shape=image;verticalLabelPosition=bottom;labelBackgroundColor=default;verticalAlign=top;aspect=fixed;imageAspect=0;image=data:image/png,iVBORw0KGgoAAAANSUhEUgAAAzMAAACnCAYAAAAltAJ+AAAAAXNSR0IArs4c6QAAAARnQU1BAACxjwv8YQUAAAAJcEhZcwAADsMAAA7DAcdvqGQAAEGwSURBVHhe7d1neFPVHwfw771J2kJLW8qmIrsgQyh7bwqUTSkCgugfENkIIkMEWYoioLIElSFDpAUE2VBAlrL33ruMMlvoSPL7v0hnaNq0dKX9fp4nL+CepMk994zfufeco4iIgIiIiIiIyMao5v9BRERERERkCxjMEBERERGRTWIwQ0RERERENonBDBERERER2SQGM0REREREZJMYzBARERERkU1iMENERERERDaJwQwREREREdkkBjNERERERGSTGMwQEREREZFNYjBDREREREQ2icEMERERERHZJAYzRERERERkkxjMEBERERGRTWIwQ0RERERENonBDBERERER2SQGM0REREREZJMYzBARERERkU1iMENERERERDaJwQwREREREdkkBjNERERERGSTGMwQEREREZFNYjBDREREREQ2icEMERERERHZJAYzRERERERkkxjMEBERERGRTWIwQ0RERERENonBDBERERER2SQGM0REREREZJMYzBARERERkU1iMENERERERDaJwQwREREREdkkBjNERERERGSTGMwQEREREZFNYjBDREREREQ2icEMERERERHZJAYzRERERERkkxjMEBERERGRTWIwQ0RERERENonBDBERERER2SQGM0REREREZJMYzBARERERkU1iMENERERERDaJwQwREREREdkkBjNElG5eXtuOnwb64qM5p6A3P0hERESUCAYzRJTmQq5swrRe9VCqjBcGz/oL+y49hdE8EREREVEiGMwQUZp5cX4dpnxYEx5lW+Kz3/bgdqiYJyEiIiKyGoMZIkp9+nNY1KsB6nf7Hv88coCTg2KegoiIiCjJGMwQUerTvg2vsX747/BubFofgF0z2yEPax8iIiJ6Q+xOEFEacETBt/PADgCgIp9XU3ja8e4MERERvRkGM0SU5lSXvMiTncEMERERvRkGM0SU9hQHOHDeDBEREb0hBjNElA5UqIxliIiI6A0xmCEiIiIiIpvEYIaIiIiIiGwSgxkiIiIiIrJJDGaIiIiIiMgmMZghIiIiIiKbxGCGiIiIiIhsEoMZIiIiIiKySQxmiIiIiIjIJjGYISIiIiIim8RghoiIiIiIbBKDGSIiIiIiskkMZoiIiIgoSzKGv8DDB88Qbn6AbAaDGSIiIiLKQsJwffMU9KhXArmcXJA3vxuccxVFxSb/wzfrryDUPDllaAxmiIiIiCiLCMOZub6o02Y0ft9zBU8jBBAjwh5fx4mAhfiiXTU0HLUdD43m76OMisEMEaU7ETH/LyIiohSnPzkNvYZvgd6zB75eshH7Tp7D6X1r8EOfWsinUyCGx/jvu+7ou+wOGM/YBgYzRJQOBDHhiyAiPCLWv4mIiFJDMDb9uAjhPf/CsX8XYlS3FqhVvjTK1mqHwT8HYNuURnBTARjvY92Pv+KM3vz9lBExmCGitGcIQUhI1JiXICzsFYMZIiJKXWF7seVBF8z/rgUKvNYDdkD5Qd+iXzkdFAj0Zw7i4HPzNJQRvZaVRESpzfj8IR6+ivqX4PHFC7hriJuGiIgoRYXnRuvhn8DT3vxAJG15NGtcBBoAYgxHeAQfNLMFDGaIKG2F3cTm737Dv+FR92IEEQdmY9RvJ/CU7QYREaWWHFXQrF6BBDq/GuTKnRMKAE3eYijmajklZRzMJaIMIQw3/lmE6VNnY+2pp5lw0qEex6d3QJVyJVAgTwm0mnEEIbGeK5OIa1j5SSUUyFcM5ar1x6rHsd9LRESUHHq8uHMa+zb8gXnT5iHgbmKtqwFBj55CoCJvoxaoZekODmUoimSFZYTCHuLa1Yd4ZcUvVdQcKOhRCC4pEubpcSfgJyx/7oth7QulXeT48jDmf3cQ5Qd+gpq50uyvUrIZcW9FN1TtvgJ39ALFqTom7N6NMZ525gkpucLOY9OSf3DD6IZK7X1QLU/6lgvD5S1YFHANhlxV8HHHKuaHLQjDw2tX8dC6igw5CnqgUOyKLPguLt56Cn0Cb1cc8+Odwm7m/w0YLmPLogBcM+RCFZ8OqJKu9YoBd/b8gfVnQmDv4YXujYpCY54kyzIi6PBqrDocBE3RxviwWYk458b48CD81xzFE20J9Plfk1hHLEvetZpaUjDvjUE4vHoVDgdpULTxh2hWIs6ZwsOD/lhz9Am0JZrif02KxTpGqSb0Lg5t3ojdp67hzp07uHP3Du4/jYDWOS+KvFMZdZu1RduGpeEalVXP/sPUvvPhPO4X9CkV+Z+G69g2dxE2HT+Ls+fO4/z5S7j1JBRGAdQ878Pv6lJ0cIr9R80YrmBq/TIYcbA4Ptt1DN+lRDSjv4OAn5bjue8wtC+UdnXny8Pz8d3B8hj4SU2ka5WdFiQLiDg6Wz5q21waeBaSHBpFAJi9FLHL/Y7U8W4vnQYskDMR5p+QDC/OyLJBtaVwmfflt9Mh5kdTl+G+7P6uvZQp1VIm7QwUg/lxymBeyer33USNvh51UuObC6I3T0bJFvz3/8RdA9G495INweZH017Isg7iqEB0nmPND1kWcVRmf9RWmjfwlEI5NKK8Vo9BFF1uKV3HW9p3GiALzCqyJ2v7SRlXXbzvg6IT1yKe4j15T5z3RAtZJh0cFYHOU8YeT4kK8s08WuojOVWIttRnsi/M/GhWFiHHx3qKDoo4dlgm5i1PxKHRUk4HUVw7mx2xLFnXaipKsbyPOC5jPXUCxVE6LHvtTMmh0eVEB0VcO680O0YpSv9IjvtPk6Hv1ZUSrlpRoIjO+S0pX8dL2nbsKt27vSftmlSWt500oiiqOL5VRVp+9Ll8PXWsfFA5l2jzdJc1set0/QVZ//M8WbRglkzoWUNyqzH9POe2i+RRrKTxCTs4WsrrNPLW+34SmAKdpxdnlsmg2oWlzPu/Sdp3BXfLd+3LSKmWk2RnSvyYDCxLBDMxwuTCj03FJfriNjXihTvMkeNPzdMmn/7ORvm8Zm7JU3ukbL6bXheQXu6sHypVC5SSzvOOywvzw5SB6OX8jIbirER2SLXFpN+2DNDjzjSey5oP8osKjRT+ZKu8Mj+cDt60gxh24Udp6qLGGZDRFWovs44lXJFFXJ4m9bPFDOgoujxS7aNvxf9ooCTYL8xgwYw8XiGdcqkCbUkZsjvBb57FZP5gJsXynsFMOguRC2vGiU/5nKJVIIrGRUq3Hiqz/j4lj+KpYgxPz8vWeUOkYcHYAzKKZGs6Ryx2s0I3SM+Cmsi+XjZpPPNmwoO7+mvyS6vcoivyoax5486/Xu5s/Fxq5s4jtUdutvwdU5v+jqwfWlUKlOos845n3p5gZr/xZMYORap7omCsX60p3AOzf+uLCi6x0yVf6LmF6N6wI37RDMK6Td+g2etr/6URDQq2nIp18xrixKdeaDvlAF6YJ6EMQoNSA5ZgzYxB+OD9Xhi7dB2+beJonoiS69lW+G9+AKOmMFp3qgcH8+M2yK5IdXjGqcjewvs//YK+FROuyPSPHiBID0DRwLVCd8wIOIn9Cz6Hj2c+2NRDjTmbw7dZbqj6q1i3ch/CzI9T5sW8t3nGh3sxzbcSqviMx6pTT2Ff0gffbj+LE+umoX+rcsilNX8HoLqUQtOPZ2Dz7vno4K6BAgDQolTNWrD01LDh7nlcfGSaI6NoK6Bx04IJPO5vwJUFAzFmZ370mz8NbfJZTpm4UJxb2B0NO/4CzaB12PRNs3iWgU4jmoJoOXUd5jU8gU+92mLKgczZE0yv05tujPfvIyh6/pcOZd7/BM1c46ZJLuMtf/Rt+wn89Z3w68ovUCOHeYq0piJ/6x+wfIwHDn/ZFj7TjyHEPAllDFp3NBr8IxYv/QVfvVcWCT3SS0nzZLMftjwyQlusDTqlxPPPGYHxPu7HVGTQln4ffb1zJVih66/7od8HP+CM5EHd4atx7MDvGFw3f/LnHKQrFzTzbY68qgE3/l6JPaHmxynzYt5bT4+zc7qiTo2aaDp2Z4YI/F4cmY1Otbww3P8CXogO7s2/xbb/VmJ4g4JWDajYFf8As79ug5wqAE1eVKlZCvHEPqZ5T9u342iEAAC0pRuhaXHLtV3Igcn4YMQx1Jzhj++auiVYlybMiFv+fdH2E3/oO/2KlV/UQPp3BfOj9Q/LMcbjML5s64PpxzJfTzD5+WWT9Dh/5ASeRPUBtCXQonV5CwUhiZ7txbiOPfH79UL48Kfv0S7dwnBz9qg4bA5GVg3G9lGdMWzDg0y4UhaRJY+xyW8bHhu1KN7WF9UzSSyjP38EJ2IqMpRs2RYVE+gJPD30I3wbdsOSIE8M/vNfbPu2DYrY+LnI0dQX3gU0MNxej5U7X5ofpkyMeW+94FsnceDAARy+HARTtz69GBG0axxaNh+M1ZdfQRQtCrb8AZvXDEfNnEnpL6nI1747WuZRoWSrhNpVLd1rf4YdW/6NXPhJg0INmqK8hc6e4fpyfNx1NjSf+mFR71JWBVWWPNs7Dh17/o7rhT7ET9+3S787MubsK2LYnJGoGrwdozoPw4YHmasnmFFOc9ow3MKOXeegj/yn5q1GaJZQD8BqT7BldE98eygYudtNxKQWCY+Qpjm78hg46UMUN17Er737YPFV7k5IWYPx4Xr4BzyFUeuBdr5V3qiRyjgMuLVjF85FV2SF0Ki5p4Xf9gInfv0QdRt/hn9y98bS/Tsxo0Mx2HgcY+LYCL7eBaAx3MNG/x2865yVMO9tTvDh7+HrOwl7HhkgUJC94jD8sbQfylmKRRLiWA1Vy2ihLVsTNS09WROyB1v3PjcN3qp5Ub9ptXjrPePDbfjcZxgudFiGVV/URMIP6ibiyRaM7vktDgXnRruJk9Aigy0hZld+ICZ9WBzGi7+id5/FyExdwYx1plOZ8eF2bD8SHjk6oSJPg2YpMFJrxOONozDgl0vQa9/BR0M7IG8GPKtO9Yegb63sMN5bh9Ej/8S9zBWUE8XDiId/+2PHMyN0ZdrDt1L83X2bY3yI7duPIGrPUTVvAzSLryJ7cRIL/lcb9T5ZC23nhdj7zyy855GcnkNGlR0NOrXGWxoD7m30w7bM+Sg4xYt5b0uMgWswqPMY7Iqav+JcB2MXj0e95EYOqityutrh7Wq1UNTCk2NhB7fin8i/pzrXRpO62c2TAE/3Y3LHj7Clys9Y920Ti3NvrGJ8jI2jBuCXS3po3/kIQzvkzYAdbCfUH9IXtbIbcW/daIz8816meVIn453rVPQsYDP+jdqjQXVB3WZ18cbTrMOOYNqoBbgSAdjV/B8+rhpPpyIj0BRD1w8awVkx4v5f4/H1Ltb+lMkZ72Pdql14Dh3KtfNFBQuPGNicZwHY/O+r6EEZ17rNYN5OB59aiJ516uLjVYDPL7uxZ343lImnLbd1DnU7oU0RLYwPNsN/6zPzw5SJMe9thOEGfu/XF4uvRJjqLCU7qg77EUPKv0lfSYGquqByrUoW7kiH48SWnbhtAAAF2Wo0RSNnsyTBh/G9byf87j4F62a3jbMwVIyXOD7zS/xyIfFbGGFHpmHUgiuIgB1q/u9jZNyuYFd80MgZivE+/hr/NTJLVzDe7MucgrFry148jwxDlew14dXQ/OpOKiMCV07B/NMREEUHzxYtUdjCKEH6U5G3VTvUcVIgEZewcPx8WFE+swbjU5zbMBOjB4zCsuhnd0zC7x6E/6wJGDFkMD6f+BOWbDmLp5aGMkJvYt+KnzD+88EYMGQUJs5ejWP3w81TWWYIwsm/ZmDEgAlYeyuRzEngOwdfDsCiqWMwdOBgfP7VT/A7HIgkfItMw3jvL/jvDga0FdC+U9mUmRuXAQTv2oK90RWZI2o1a4iYmiwYpxb1Qu26vbEyojVm79qDBR+Vz7wLStjXQqc2xaA1PsIWv814Yn6cMi/mvQ0wItB/FMasux99B0BT+H18Ndgz3ke+rGePWoN/xWgvC8PRhsvYGnDJNKVAsUOlJmZ3XYKPYYZvW0y83xJf9C6Kewf2Yd++2K9/sNlvLr7oXActFhjhmcDCAQAAYyBWTpmP0xECReeJFi0LZ9yFVdS8aNWuDpwUQcSlhRg//wIS6W3YBvO1mjOtV5vl40KR641DEYcGP8j1N133O+KUTKhiZ1rzXFdJxp2IZ3F0q7ySm3uXyLcj+kkPXx/p/L8B8uXs9XL2ieUvqL/xjyycOlr6dmku9XsuljuWk8YwXJNp9SK/r7a0DN//Bmv0ZwKhdw/I8kk9pVEJZ9EoEGgKS9/toZEHL8vase2ltIsad5NBRSf56nwm627G3tIyWE4tGypexRzNNiRURJOzsvT3v5bgBpivbu6TxeM+kHpFnERVINBVlLHH4r+WEvzOT4/Kgv4NpJBD3I1hFY2bVBv6t3XXSKZhkBszG0t2RRG7Gl/LuYQyID6vbsreJd/KiH49xNens/xvwJcye/1ZsVwk9XLjn4UydXRf6dK8vvRcfMc8QRzJ37vjlWz+uJBoovLWoZH8dCPyS704KQt7VhAXTXbx6DRTDj62+GWTLtn7zKR+3Ra2f7iU1kJUNx9ZFmR+NKvJSPvMZPC8zxL7zETIgZFlRQtFXLv4pf0eW6/2ymfvxNoXRskmdb47n2B7mBIM13+QBlHtoHnf7MVRmdGigGgj93VL8KXopPL4k5JYjRdxaoJUsTP9PV2lcZLcruCrm3tlybcjpF8PX/Hp/D8Z8OVsWX/2ieW9cfQ35J+FU2V03y7SvH5PWZxYgYlkuDZN6kV+X23p4ZIZuoJZJpgJ2/OplNTGXKBVJ5154wIVcXyseOpMF4Sa70NZl4ya4vnJxdK3VgGxVxTROBeRas07SqfW1aRQdlV0+RvIqA034/meYbJvWCnRAgLopOLY44kWNpMw2TWoeOT7NFJswA6J7AZnKcGnlstI36pS0KzTHxUYGB7tkclNC5oqO0UVVTVLB0Wcqo+XQ69ExHBfAr6sJ3k0igCKKKoqilklqeSoIZOOvV5bPD28UIa1ryT57M0+P55gJrHvrL/5twyt6ioqIEp831l1k+ZzLsdzLWVS+qsyo0E2URR7qf3dpST87udycnFfqVXAXhRFI85Fqknzjp2kdbVCkl3VSf4Go2RDnEA2Utg+GVZKG5N/iXT4k91BDNsjn5aM/DtQxK7GN3JeL/Li1CLpWdFFVIfi0n7afnlkXZtmvWQEM2lWt0UclFFldQLVVdovfmC54c8SMkYwYxN5z2AmlRnk3qJ2kjPWJuWqaztZfD9JuZQMBrn/a0tximyHtR7DZF908/tc/vrQ3TQQGLt9tPBS7GvJlPOvX6lxRZY5BQKoku/DdUk/z89PyuK+taSAvSKKxlmKVGsuHTu1lmqFsouqyy8NRm2Q+JudYVIqsl+rqzhWrKyaRcJ2yaDike2IppgM2GH7PcEsEsxEyOEx74ou6iLVlZPRh6zNdUsi5OiYCtGfqav1rVyK52KzTC/XV/aW8jlUgaKVgs0myvabUSXOII8PTJEmuVVRclSVMXvMdvWOOCSjy+lMvyWJuyA/Xtw2ViH/VPZY/9ZMQ395u6xYt0+OHVwlgytlixk10hSWT1ZukBHV8kiher3lO///5PKDEIkIfSRnN08VnxL2MWlVN/FZckV2f1lDXF3LSLsR82XriZvyJEwvwbcPyrJhdSS3JiqgUCVP5z/lsdn3CDuzSf7Y+J8c279EepaONXoVTzCT0Hfus2ylfFzGWQrU7ClT1xySa49DRR98XXb+2Ek8YgU/2uIDZaft11lW0V+eKnUdFFEc6sv0K1YWTP11Wdm7vORQIYq2oDSbuF1iiuRjOTClieRWFclRdYy8XiRNnUQAoi05RBIrksnpIIqIRBweI+9G/h1AJxXG7JPji3tJRVdV7Au3kin/3E9ah85aSQpm0rpui5CjX1YQHRRxaf2bvPHG3TYtvYMZG8p7BjOpS39VfmiYPdbTCqq4+S5/rR1MeU9lxXtuogICaOSt3ptS93dHHJUxFSKvW+ik1rdJGTwT0V9fKb3L5xAVimgLNpOJ229KTLNzQKY0yS2qkkOqjtkjcUtM1DUKAbRScsju6Pcl7rEsbusUmTda8fh0TxLemzFljWBGf1YmV4vpLGqKDZRdb5pz+ivyfZ3IR7agSt4ea5NQYAxyZ+0nUja7IoAqzrUnyMEX5mn0cmlmU3FVFXGoPE6Oxvq+ESfGSaWojlOp2KMOiYtzh0pXVSadTUqxs0x/4W+Z+f1UmTo1jV7T/5BDZm1h0hnk7qzGYhdV2aqOkq9QeWk3dY/EN3gUvHOQeESdO6jiWtxDSlbrJ3+cM28IRcRwU+Z7m+6UABA1V1fxDzZPFEUvZydXixVsvx7MxDD7zko2ccuVVyr0XiGXX7sOQmTfZ2UiRzoh0HrIp1kietXL+W9qip2iSPZGP1n3OKnhjqz9pKxkVyBQnaX2hIPyepG8JDObuoqqOEjlcUdjVf4RcmJcpehGpdSwfYk2DEnrIEaJvE6iRhUVJyldrby4qqZ6JHerX+RqyhTn11kdzKRP3WZ6nyJKDm+Zf9eaDM+s0jOYsbG8ZzCTqgzXpkv92E8dKM7SdtEj82QpL2S99CwYOaVAzS1d/J6bp0hR+ivfS53IR7ag5pUea60/y4Y7a+WTsqaAT3WuLRNeLzCivzRTmrqqojhUlnFxC4yMqxQV/JeSYdYWGBERCZM9n5aM7hvoqk6SFOoKppssEczEeX4SGinYc/1rlXyShfhLVzc18jN1Un70ocRviUcy3Fgs7fObCpviWEMmHbdwET5fJd3yqgI1v3RfHdVzD5X9w98xdWiUpP1dkahnJWMqF59lKVPQX/l1EVcrb92myEtXV6ZdS0LDZcGrNd0ld9RtcNVNWsy5bPl8hm6XfoWj5l1BtGUGy06Lw0wGCfzZSxyizkkincDni9pItui0CQUzZt9ZySHVR/9j8bGisP9GSJnoxyvtxWtuYOqM3Gck+jMyqZpOFMVRvObctOL3GuTG4vaSXwMBFHGsMUksF8lukleFqPm7S0yR3C/DI58LV3Tlrbrra30HMRbDdfmhgUP0oIyay0ve984fHTBDzSftF96w4vcmg5XBTLrVbfozMrGqThTFSbzm3E6dc2AT0i+Ysbm8ZzCTqh4saC05YvUJFLt6Mt2qkaU3E/bPICke2eYpOdrIwgfmKVJWiH9XcYtqj62s/0VExHBDFrfPb5r/qDhKjUnHLQyCPZdV3fKKClXyd18dfXcmdP9weUdnerxdV360WPtnTQxybVq96EFRxdlHUqgrmG6ywGpmRjzYugWHw8T0T9UFdb3q4E1XKTXcuoirL2KWtXJ1ywUlTgoLjHfxx7ARWBtoAKAif/vh6F8h/sUF4VgLtSvaQTE+wKaVW/EMAJ6sx+wlFxAhgOLcEJ/09kzSKk1qnnzIpY38pvIKl89dNk+SPFp7ODo6puHLATqrTnjCFCdHZIv6HCUHini8Zfl8agvj7VjrN6r5S6CUxXXyVbgUKoScUZ9tfIxHQZbXDNE4Olq9ukuc76y6oVKj6rC0N5ddqVIoFp3fRjx+lN67QKc+/Vl/rDmmB5zqoWM790SXbDTe/QPDRqyFqUjmR/vh/WG5SNZGRTsFxgebsDJyOdgn62djyYUICBQ4N/wEvT0tXkFvxPhgK7YcDovMPwXO9bphxqyJ8M4d+QuN97Hui8/wxx1Ly+2lsvSs2zSl0LFDFegQgr2r1uB2Op2CLIt5/7qwJwh6FnelyawjDKePnMbLWI2N+lYFVCqQWG38pvQ4tXUXbpqWMYN9lcZolMs8TUoy4NbFq4jpCrrCLZc1HRMj7v4xDCPWBsLU7LTH8P4VLCwz7YhatSvCTjHiwaaVMDU7T7B+9hJcMBUYNPykN5LW7KjIky8XYrqCl3Husm1fq6l9ZWUAzxCw5d/oQqU41kazhjnMEyWZITAQD6MLqgL7bNmsCmb0J+dhetQyhdqi8O3VEpY2sIWaEyWK5YUKI54c3INjYQZcXDQLa+8bAWhQtOtwfFAkiQsAapyQI3vUNzUg8M5tswTJ49BuIW6/CEZwcBq9nmzFwMIpc/lak28AACUbsjtYnRpKtmyISa5HRALrIyf1l1j9LexyIEesfRINEZFr/Wdaepz2W42TEYBzg45oky+xM6vHyXnTse6+qTXSFvVFr5YWSyTUnCVQLK8KGJ/g4J5jCDNcxKJZa2EqkkXRdfgHSGqRtNazgC34N7oiy47qzZogV9GPMOOrJsgZ+TMNd1djxOf+6bIpbvrWbRqU9O2A6vbAq/2rsPqG5YEDSnnM+1heXsP2Hz9Bo1JF0Wbe9cyx7G2SPcely3fjbMioKVoKHknqcCeD4Qq2BZwzLckMLd5t3BTuiTUBb8SAwMCHMW2qYo9s0SONCdCfxLzp60ztBrQo6tsLlpsdFTlLFIOp2TmIPcfCYLi4CLPWmsqbpmhXDP+gSJKXgtY45UBMVzAQd24zmMnYgndhy57nkYVKgX3VpmhiaRg7CYzBIXgZXVIVaHV2VpzMEGydtQAnIrfu1uRriObx7dwdTYsCBU27yBpun8aJi39h8rQ9CBZAcaqLAUMaJn3/CCV7rMImePbosVkCskwLbRIqY0WrjR75SDeJX5Sp4urVqzh37lyKvp48sWInCf1x+K05iwjVBY06tk58R+eQrZi14ARMRVKDfA2bI+EiWQAF86oADLh9+gQu/jUZ0/YEQ6DAqe4ADGmY5BJppWDs2rInZp8su8rw8soLFRqU6DMDY+q5RGa1AXf/HI5Rax+k8c7O6V+3aYr4oEMNByD0P6xelRKdSCPu+g1D25Yt0TJVX63x0ezjkR0wW5QZ8z4ZQq5g8/TeqF+6LLyGzMPOGy/NU7yhcOz77j20eu36SejVBp+tugUjgJDd36L9a8cTfrUbsSayw51EhscIemqMNXCmwil/wehBl9RiDNyO7Sf0pr+r80Bjr5JJ7uQnjRHBIS9j6lpFC51d4j8yZOssLDgRbvqemnxo2Lx6gk9maAsUhKnZuY3TJy7ir8nTsMdUYFB3wBAkp9lRsmeLecJDnuHR4wizFDbG/LmzzObV1j5SSBM1Z0AnNb5JmTXOQzf2lIJRnwt7aT7fioltrzZKT/eYvW6c2v0uT8zTmHnws5fYAwJtYWnQ2EPsFAgUrRTts8lsZQsrhQbEmfdh13SueYosJXTbJ/J2VD7G3rMlPoZAmdPULubcNZopCc03Dds9JGaxBY279N5k+bPjzDlKZM5Mkr5zyErp7Bo1X0wnntYsd5oCPDw8os9TSr1mzZpl/mdeEzWJWHFsKb9aVSR7int0/eAk7X5PtETKz172AkC0hRtIYw/TIiCKtqj02WR9ibR2HkK0V1ulT/Q+WRBdlYlyJlZFFnbia6nlFJXPimiL9pR1liZSJUdic2YyQt0mern8XW3RQRH7hj9K1PY7yaeXC9/UiFmYI9VeGnn7k20ptEx+OsyZsdW8T8k5M4Yg2TF7gvy0dIXM6VnBtJBIMla2Stgr8eviaraXWeq+dHWnSbKmpkYck7EVo1b4gmlVsY83p9A1btmjRW3FObId1RTtL6m/4nCobOxZMHrfL9g3l8S7gq9kY0/3mL3CnNpJ4s3Oz+JlDwG0UrhBY/GwM82V0RbtI0loduIIDegnhaP7sHbSdO598yQ2JfEQ0qaF4/CmnbgXNUyjLYMmzYqnTKSeLTtint4R6PX6REdC9af34uCD6C+Dwu+UTnQEytHNzRQ9629gV8BFhAugce+MqeO9YHG6RpKI+X8QvbGyZcvC09MzRV958uQx/zOv0RaugLJuKiTsPE6cCjM/bEaP03sPIqZIFsY7pRMtkXBzMz1Sqr+xCwEXwyHQwL3zVIz3SpkSGZ/ww5uwM7oi06FU02bwiFWR2b07FD8Oqxz52IBAf/13DP1iS5rtip4x6rZgHD9xCQZo8Fb5Ckj0CcNEKcjToB8mf/MNvknV19cY0a6E9XNEMpjMmfdJpLqhYb8vMfD999BnzAeonCqZqUX5zuPiuX4Sek3GoEYFoIGCbJV6YNJrxxN+Te5TN3l3U5TsyJ4t9n8IwsOi5vullhfYtXUfggUAVOSu54VqCd3uSCHZssd6jlv00OsT6QnqT2PvwQfRdw+1hd9B4s2OG9xMBQY3dgXgoqnAoPPU8UixZkdSN3dSnXl0k6lEHJUx78aMDliz/4O1Ik5PkMqx9nuoPfVKoiMwz5e2j97jBbCTpnMSX1kqNPadJUCgKSidlt1J9H0WhW6UXrFG0bK3X2KeIktJ0l0O3pmxAS9k7YcFRQONFO67LZHVe57L0vZRa+1DYNdU5iS6UUWobO1TKGYkDhBNwU6yzMqdl6MkOtodR4Qcjb1Plra4DIpvbfmQ/TKqYsxqZ4rOQwZsS2zIz0qJ3JnJEHXbkz+lc25VoPWQoXvjOT9ZQtrfmbHZvE/JOzOxBS+RdtmUVLgzkxzptZrZC1nmkyPWXSRFHLx/Td09Zl5tlo/fiuzbKK7SYWmq/rVIEXJ6QuVY2yrUlqmJ7Wv2fKm0j76LDrFrOifx/ZFC496ZBzRSsNMySWKzE0foxl6xnkrILu2XvL4stC1JTsxtMwyXN2PbuagnkTXI16AZqsa/XIQFRjxY+QFqD96BULMjWvdCKBhrOa2QF88hcVKYM+BR4CNELaoGRQsnZ6dEpzQoTjngGPVnFA3cfabi+84FE32fRfISL6OXGFGRO38BswREtswJjX1bIL/GgNt/r8SuhB5bNzxC4KOY0UJF6wRnp8RKlgKnHI7RCzAoGnf4TP0enWOtcpfiDJexeVvUpFZAk68BmsVXkWWvidE/9sM7dqZvJxGXMH/wBOx6YZ4wpWWMuu3xxpXY+tgIbcl28I3v/FAqYN6/RtFBlyp3ZmxJNnh6lo51t1EQceoQDid2s/wNhB/Zil2BpvsdSrbqaNoopW5ZJEQL90IFY62sGoIXzxPpCT4KxKOYAgOtkzMSb3ackCOmwEDj7oOp33fGmzQ78vJlzGpzam7kL6AzS2Fb3uBUZHRG3N6yDSf0kbml5kR9r9qxHg2zQuhB/PDNAVRqF8/7sr+DMtErrhjx8K5pib2EGPSxp3iq0GgSmx3+Akc2/YPbBgBQYOfRG/NndUahN8m1l4/xOGrlAkWD4qU9zFMkS9jmoahSygMeHmn0KtsVC9JrCVrK0Bwb+KKVuwaGexuwMiDY/HAsBsQtkhokXiSPYNM/t01lXbGDR+/5mNW5UKpWpMbbW7AtalIrVOSs1xx1Lawt71TvS/zQu2Rk4yoIPzcHgybtRYh5whSW7nWb8SHW+wXgqVGH0u19USWd+7NZCfOeXqdByWZeKB2rf2y4txObDr1pNPMSZ9f9hvXnzT9Hj/Nbd+Ja5JLMOs/GaJo3uRdU0mR/p0zMCpbGh7gbGVBZZNDHWexD1WgSXZ30xZFN+MdUYKDYeaD3/FnonOwCY/Ly8ePoRawUTXGU9mAwkzEZH2Dr1kPRI0aKU200TdKSzKE49v1QzA1ujo614nnw0q4sqlSIWkHIiKC7d5DQIDCggVsuV6hRV62EI+jBkwTm2Rhwc0VfdJ1yOPoZ0HwNOqBxosszJUx/9QaiYwBNUVSqks8sRfJIcCCuXLqES2n2uo2nNr74BqWS7PXRqfXb0BgCsclvOyzemNC4IZerGt2QSHgQHjyxXCJhuIkVfbtiyuFgU2Ch5kODDo0TXzHtjRjxYOtWHIqpyFC7WUNYrslc0Xj89/igiNb0uyQMp38aiMn7UzOcSf+6zfjwb/jveAajrgza+1a02fkntod5T/HTenZD9+rZYzrq+stY+tMqPLB8cSTCiFt+/dDxq3PI4W7WJzPcwNYdZ6KXZC7b2AuFU2RydOLsylZBBZfI69cYhLt3EukJuuWCa0yBQXjQAyTc7KxA365TcNhUYKDma4AOjfO8Yeddj6s37kSXU03RSqiS5hPNUpZtf/uEBG3Fxv0hkaOZCuwqN0KjnOaJLDEiaOeX6PXNIeRp1RE144llgOyo27Ba5NJ2Av3VC7iQwD4iAOBU/l0Ujy5gBlw8dQrxv8WIwI3D0Lb3clyPiLoPaETQ/UCz9OEIi/8DLHp14RyuRw4LaAo2QLNKKTOMpS3hhY8HDMCAtHr17wBPZ/NvQQQADqjdqQ2Kao14sNkPW56aH4/ihPLvxloQxHARp05ZKFDGQGwc1ha9l19HTJEMwv1As/ThYRbKdHIFYevG/QiJimXsK6NxIhWZmqslJo1vHb2RqoSewIy+47EnoZtUbyh96zYjAtf6Y9cLQPduB/iWY3c2LTHvKV6a0ug9pgeKRz+DZcSjv77EyLWBCQS7lj3dPwFdhl5Ep9lfob7ZaI7xwTZsPxq5h5q2CBo0fccU1OovY/mEmdhv2t84dWSvi4bVIvcZFD2uXrhg4fqP5FQe78YUGBgunoLlZmcjhrXtjeXXY/aHMwbdx+vNjoUPsOgVLpy7Hhn8aVCwQTMk3BU04uWD67gWGJzoE0jpxnwSTeZgkMCFbcVVjZospZV3Pv9XrJsWGCF3to2RurlMkwmH7bP8LsOdn6V55EQuxaGJzE5sNlbobhnioY38ThBN0b6yLdg80Su5vGqAVHZWBVBE515GSrmqAkB01SfLuai5ZYYg2TikvvRZbT5xMSERcviLqInEGinSLyANJwRmTKGbesdMgtO8JX22JjCZ3nBHZjaKtQBAwx/lZgJZHrpzoBSL+my1oPTcYPmzQ/7sFL2kJHTl5YvDr0+yjpKk7xyyQnxzxCwAUGHM0Uy+AECksH0yzEMrUHNJpz8sTwQN3T1EPKIWaYBGivbdJq8XycuyakBlcVZNy7u7lykVWbfopPrkc9ETfA1BG2VI/T5iTZFMbFJ1FEPgQmkbWf4BiO7dLySBSyNG8FrpkS/mfVDspcyAzZLs1ZoTWQAgXes2w02Z3dRRFMVOqk06k84TrtNb2i8AYLN5n1oLAETXuVl5AYBIhiDZOqiMOEQvEAFR8zSUiXuCkrDYwws5ueB/8m7u4vL+smvxns/HS32iF9DRuPeSja9ExPBItg+rLKXeW2rdUt3JZpA7PzePXARDEYcmsxOZmB8qu4d4iDaqbtYUlb6vFxh5dXmVDKjsLCogis5dypRyFRUQ6KrL5JgCI0Ebh0j9PqtfK+sJijgsX0QtjqUpIv0CLF8Zhkc7ZVLLYpJdVURRHaWo93gJuJ/gD0wXmfPOTOhRzJm1Fc9ihf+S6LJzBjw5sw7TP26AKt6TsSfICG2JtvBJ4AFcNX87dPVygwpAwk/h0GHzZQLM2NdC3/714Rp51g3Xf8fIcQGRm1Lp8fTKTsztVQdVO83GkecCpzI9sGD7RgyqagcFgOH6ZVyKgOlWvf9gDN5UDh2bWnh4Pj7Ge/jvwCXoASja4ujQNZ65QFnMywcPYq4T4zM8CHxlliIW4z0EPoq5juRBIAITGGIKv38fj6OOyzM8uG/pUR8jggIfIjTqow2PEBhoeQu9pHxn46N7eBg92dCIR4GBNrw5XxLYVYFvu5LQGp9gm98GBJkfj2Rfqy/613eN3nDy+u8jMS4gcidz/VNc2TkXvepURafZR/BcnFCmxwJs3zgIVe0UU/rLl2AqkjfhP3gwNpXriKQUyYSF4uicWdgaqyJT8ha0bkdrXT7kj705sITh7Jxu8J16CKlygyYd6zbjzTXw3/sSsKuCDh1LpczS+2Q95j1Zorqh6dQ1+LmrR/Ru88aHOzGuZX10n74DN82nvpgJvR6AHz6si3qD/kOVn7ZgQdf4droPw4Fd/+FFZDOnKVkOZY3Xse7zVui1vznmze2Ct62pM5NNRf52XeHlpgIQhJ86hIS7gvao1bc/6scUGPw+chwCIncn1T+9gp1ze6FO1U6YfeQ5xKkMeizYjo2DqsLU7FzHZVOBgeGmPwYP3oRyHZvCuhJjYrz3Hw5c0gNQoC3eAV1rW+oJhuPfr/vgq41X8dIoEGMIrm0cj84fL8LNBPo+6cI8urF5r67L+qFVYi0VaXopDoWkVqeP5dMRo2XMmDHyxeiR8vlnn8qA3h+Ib6sG4lnEVXRx3qOVMiP+S/RuTsjOQVJSq5hGdQfsSHxTqIhzMrdVAdFG/S1FJ66Fy0qZt12i/76iuki5brPkQJDBtHHbtHriqJiWr2w58Xf55av3pLybh/RZ/ygJoxsihnu/iLeTIoAqrs3myrX4hjiyEMPj/fJVHRfTaAcggCoudcfLv4/jO6uhcm1lDymhjVlSUdEWk25/XI0/z58clMkNI0dSYBqxyVHrS9kb9Ppn6wO3y1DPbLGWsVQlX8uf5GQ8KyUm6Tvr78nWwRXijIpp8reWWafi+eBMKOLQF1JeB1Fc2sjCBEaSIs7NlVYFtLGWNHaVwmXLyNsuusj/U0R1KSfdZh0QU5G8INPqOYoCiKZgS5n4+y/y1Xvlxc2jj6y38tZHoqPd8kqurx8qVWIt4QlAVNc6MnbXvYTrJf0j+XdaS3HXxH0vAFE0eaRG359l9w3LI3HxSuzOjKRX3aaXy9PqiYOiiEPd7+VyFq/T0uXOjNho3vPOTNoxPJK9U9tJsWyx6iRFFacitaXjwMky/891sm3PATl0cJ/s2uQnv04dJT29K0g+B424vvuBzDn02PI1YbgrsxrHPDGhaHNILlcHcfYcLBvuWXxXCguRnYNKmq5/TVEZkOhunRFybm4rKRDdn1BE51pYypZ5W1x0kf+nqOJSrpvMOmC6i6W/ME3qOZr6mgVbTpTff/lK3ivvJh591ifxjrtB7v3ibeojq67SbG78d7tMnsvv7UxtXZx2JJHtI9JDJglmwmT/JG+pWqGUuEd3QN7wpSsnow5akVmGu7K0Yz5RAdEU6SfbraktXhyXXz/ylJxmnQ1F4yIlm/SRGdtvxO0gP90hn1dyFjWqUchWXDrMOZHEiskg935rLS6Kaf+JwbvMK++sQ39+rrxXyUPyO2riuVYU0TjmF49KXeTnC3oRCZXNn9eSsoVzmnapNk+v2EnOwmWkxmcb5ZWI6C/Pl/creUgBp5jOcdzPziclPX1l9lm9hB34RrwrFJc82dR40+qc3aVU5V6y7K4had857D/5usW7Uiy3Q/Q1E/ul6FzEvXQV6bX8nvmpyVwid6FWFGdp+ctdy42hiLw4/qt85JlTNHHOlyIal5LSpM8M2X4jbuP0dMfnUsk5Kt8UyVa8g8w5YX2JtNRBDNs/SbyrVpBS7jGdwNdeik6c3UuJZ+vvzB4508u52T7yTn7HePM9zjWgyS55i70rbaZZue+QNcGMpEPdpr8g39ayF0XJJg1/uJpAo5xVpFMwIzaY9wxm0lzIla3ywyeNpaRrwv00RXWQApXayqfz9srdBKobkzDZP6JMTPusOkv5D+fLsafm6VKX4e5S6ZhPjXyEf7sV5/qFHP/1I/HMadamKxpxKdlE+szYLnGbnaey4/NK4qxGBTvZpHiHOZKEZsfEcE9+a+0iChTReQyWhLuCerk8s4m4RE/ZiPqO9tJkzr0E29S0pkjiz19RIgznp6Nxtc/wT0hedPnjDJZ3ymWeJB5GPD0fgPXbj+FWiD3cCnmgSv168HR3jH9VhrBAnNi9D2efOKBotfqoUSSxLWPN6E9iQs1q+OqIEcV6rsaBea2iJwgTZU56nJ5QA5W+Ogp7rzk4v/GThB/RMj7F+YD12H7sFkLs3VDIowrq1/OEu2P8bwoLPIHd+87iiUNRVKtfA0kpki+X+yBvt9UIrzgW4UfHmx/OeF4uh0/eblgdXhFjDx3E+AoJTbROu7rNcO5r1Ko4Bod0jTHz7Bb0T93nSWyAHifGVUPVCcdh12EpHqzqGufxE/3hL+BZ62uccewM45M/Yh2xLGnXqg3lvf4ExlWrignH7dBh6QOs6hrnTOHwF56o9fUZOHb+E0/+8I11LBEv/0Sn/F3g90KLWt+exe7PS8TzaFRa0ePgqIqoPeUsnLqsxL3lHTPGo+Xhj3Hhv+3Y8e9Z3Lz/EI8ev0CE1hHObvlQ5J2KqFqrHmqWcrN+Zbrwm9i1ZBl2PymIms29Ub9cHlieIJBaDDg/vTGqffYPQvJ2wR9nlsOarqDx6XkErN+OY7dCYO9WCB5V6qOepzvib3bCEHhiN/adfQKHotVQv0YRWF9iTPQnJ6Bmta9wxFgMPVcfwLxWueIvm1GMD/Hf73Pw59GXeKtBV7QKGoOqfbagwnfnseuzYul4bZsxj24oOcLk9A9NJJeqSLbqk+RkoiMJac0gj1Z1F3eNIroSfWRDPI86EWVG+rOTpbqdIkr2xjIzdWeBJonVo90ZhbV3ZtJUhJwcX1l0iiJOzebK7YyTvekoHe/MpKkUyHvemaGUFnZafmiSS1Qlm1SfdNK6u95pyfBIVnV3F42ikxJ9Npgem06i50vai5OaUzr7vb5oQXpKMCAja9mh7MBFmN3lbUQcmoFRC69nqOXrjEGbMGrECtzLUQtjfp8KbzdmO6WP0DuHsGb2WAz4Xxd0aOWNNh27oc+I77Ek4AKepsKEQo1HR3SoYge82o9Vq29kqHJJb0h/Gn6rTyICOVC/YzsUYLWWdTDvKSOyK4uBi2ajy9sRODRjFBZez0gtjhFBm0ZhxIp7yFFrDH6f6o2kdwVfYNfOgwh1bYzWDR3ND6arJP8UskB1x3tz/fB1Iw22ju6LeRczyJpRhpvwGzwQi26XQO/FfhhT0/J2e0SpJuwK1oz2RrlS1dFhwETMXrgCazZswt+rlmH+d8PxQdPyKOHZCZM330rZ1dY0xeHjUx32CMV/q1bhWkZqW+iN6I/7Yc3ZCCjODdCxTV42ZlmIreS9wZDeFY6C/LW7Y/CQIejXwsP6x7Yo2VT39zDX72s00mzF6L7zkHG6gn4YPHARbpfojcV+Y5CcrmDYiZmY4vcMlT/9Ah2teIQuLWXUOsA25aiK4f7rMOHdYxjZaTi2PEyFoeakMD7EjtE+6LPeBb2WbsCsNgWY4ZT2wk5jbqeGeG/KJlyJ2v3RnEQg6KQfvmxTHS2+PYAX5seTTYOiHXxQ0wEIO7gK/pfSu3NBKSMch1euwfkIFS6NfNE6L2u2rCOD573hFUJNK+ciPDQUFmq8NKLB261G4PsZ0zG5+7sMZtJIjqrD4b9uAt49NhKdhm9B+ncFd2C0Tx+sd+mFpRtmoU0ybmXqr/uhf5fvcLf5TCwdWTEd5iQlLOm/iBLmUh0j/96BmZ7b0dN7GNbfSafOU9gVrOjTGD7L3DBiQwBm+RRlRUbp4AX2jOuOYX/fQgS0cC1ZC96de2PY2PEYO7wPOtR8G05q1A7RgETcQ8CYDvhwcco9Eqa+3R4+tbMDEUew2v98in0upaPwg1i59hL0ak407dQSGWyQkFJTBs97/eUruGkQAHpcPXwwcr8dympcqo/E3ztmwnN7T3gPW4/06wquQJ/GPljmNgIbAmbBp2gSe4Ih1xAwpz8a1x+Oq21+x87lH6JEEj8iLTCYSQ3Zy6DHb//Ar9s9jGnSEhN3PjBtwpdWgg9jRgdvjA/qAv8DGzCqtmljT6K0Zjj3M0bPOoGIfPUwdNlRXDu/Dxv+mI/vx4/F+O9+xqr9F3Fy7QjUy61BVEgj+rtY+8UYrEmp4SzVHe071oUj9Di+xg9nMshtf0q+sP0rse6qHmouL/g2z2l+mDKxjJn3BtxYNwn9erRDrdZTcTICAATPNg1Bnfq+6DXmT/M3UBaQvUwP/PaPH7rdG4MmLSdi54MUatOsFHx4Bjp4j0dQF38c2DAKtZM8SeYxlvbvhGmni+HTDcewfUobFMmAgQwYzKQi1Q01B6/AXv+BqJLHKW1PtIMrKvb3w3+rR6Gxewa98igLCMO+efNx0LUNZgVswbQu5aN3CY9hj6KtvsG6VUNRIVvMHRrD3bVYsOZ+Cg0CqMjfvg/6t/FG07eCcTGNG5T4aNwrwcvbGy1qe5gfypg07qjk5Q3vFrXh4RyTT+nDgOvXIlDGqyXaD+yFFq7mx7MyBc4etdHC2xteldxfWzZVcfZA3ebe8G5a0eyIZRnrWk3BvFec4VG7Bby9vVDJ/bUzBWePumju7Y2mFQuYHYuPBoXbjMGcxX/h4O1QGE17+Jl2TN/jh18nvWf+BsoiVLeaGLxiL/wHVkEep9cawFTl4FoR/f3+w+pRjZG8rqAbui06hI1zhqFduZxp249NIu4zQ0SpI3w3hpTvgWffHsZv7RJZyx7B2NK3PFr+HLUSoAJX3z9wa+V7SV5Hn4iIiLKOhPsXRETJZLj5L07k+xift04skAEAJzT8wBclo0ePBC8f3cez9L+JQkRERBlY4n0MIqJkUHL5YMaCvihl/gSHBXYVqsEzR1SVpECTwwVpfFeeiIiIbAy7CkSUKtScJVCxhKv1lYwmN3K5Rs3H0MC9aFFkM0tCREREFJvV/QwiekOGlwh+mfD6jGEPr+Lm4yz6bJW8QHDUPjRqTtSsXznDrWVPREREGQuDGaJUZcD9vbPRv3kZ5M31Nt55pzAKvdsGo1dfQVjsZC82YFD53HB5qxMW3smawYzx6W3ceWYKZjQF2qBTE0fzJERERERxMJghSjUhOP5TB1Rt/CnWaXvA/1wgbt24jIDPHPHH+83Qd/W96KWHQ3atgv/ZIBiKNkTTUslaQ9Hmhezbi+MRAih2KNvjY3jlME9BREREFBeDGaJUYcSt5T3RetjfePDOUKxYMQL1CmgBOMCj23R80fghlo76FntCASAYu9ZuxQOjFqXa+6JKVny2yvgQ6/7YgiAjoCnQEWOGVOEjZkRERJQoBjNEqcB4bwU++8wft4350PHLEagde7MUNR+8vCpDveKPJTtewnjPD/NX3YPRsSY+/DBrzhPRn/4ZP254DKOaB97jJ6FDHlZNRERElDj2GIhSnB6n5k3DX4EGaN5qhx4tc5odV5GvVEnkwQMc2HscB+fMxOZnCgr6DkMva9cxzkwM1/DbyB9wJFRBvlbf4IePir62czkRERFRfBjMEKW08KNY4X8S4aLCpXZj1HQwTwBo8udHblWP67smYeSsE4jIVhX9h7WEq3nCTM+AK78NxJdbnkBTvAfmzvsIxRjJEBERkZUYzBClMMOdPdh3yQBAg2JlysS7V4rqlgs5FUHwv5vwzzM7vDtoGgaVy3oT/0NPTEPPEZsQ5FofE/+cifb5WSURERGR9dhzIEphhps3cdcoAFTkzpsv3kemVFcXOKkKAAX2Zfvjxy9qIastRGx8uBnDu47DntDS6LP4DwyvnNXOABEREb0pBjNEKcwYHIyXkWsua7TxhTJGBO7cg3N6QMleGSN+m4D6sRcIyApCT2Fmtx6YeykP2s5chR9a5WdlREREREnG/gNRCtPmL4g8GgAw4vb169CbHQ85Mh3dei7EZb0AdiVQrlx2sxSZnOEm/Pr6YMQOBY2/XYslvUpnyRXciIiI6M0xmCFKYdpyjVG/kAaAHhd378RNQ9QRI4L+nQrftqOwM+xtFMurgby8hzuPjAAMuOk3AbMPhsf9sMzG+BABIzug55IgVPtyNVZ+6pnlHq8jIiKilMNghiil2dfFoGFN4KYKXu2Zgp6jF+Evv/mY3NcLlRuNRIDaBBM37Ma0FrmhGi7j9KmXeHZoOoYst0ftCpn5HsUz/Pt1R3SacQkeQ//EqjG14GKehIiIiCgJFBER8/8kojdkfIz90z5A5zEbcStcACjQOBdDw+7DMXFsL9TIq0HogYlo1OIrHApzQo4CzTF963J8mGnXJQ7Gkek+aDViL3L1XI6tc9qioBVDKU+PrMEe+2ZondUexSMiIiKrMJghSkXhQefx37+XoC9QFhXLFYObfdzjYYFncPRKOAq+WwGFc1jRu7dJL3Fy1nvw/nQrHN5biG2LuqKoFatQh11cgo9az0Yp/70YV96KNxAREVGWw2CGiFLRS5ye2xUtBv+N4MqfY9HP3VFSZ54mhhheIuj6Gezf8DvmL92Fu+9OxvE9I1E6s96wIiIiojfCYIaIUslLnP75fXgPWotbEcmoZpRsaDD9NLYPKRbvXj1EREREmfW5FiJKVy9xak5XtEhuIANAcayLTj5FGMgQERGRRQxmiCjFGa7+jAFD1+F2MgMZQIFzw/fQ3p1VFBEREVnGx8yIiIiIiMgmcdiTiIiIiIhsEoMZIiIiIiKySQxmiIiIiIjIJjGYISIiIiIim8RghoiIiIiIbBKDGSIiIiIiskkMZoiIiIiIyCYxmCEiIiIiIpvEYIaIiIiIiGwSgxkiIiIiIrJJDGaIiIiIiMgmMZghIiIiIiKbxGCGiIiIiIhsEoMZIiIiIiKySQxmiIiIiIjIJjGYISIiIiIim8RghoiIiIiIbBKDGSIiIiIiskkMZoiIiIiIyCYxmCEiIiIiIpvEYIaIiIiIiGwSgxkiIiIiIrJJDGaIiIiIiMgmMZghIiIiIiKbxGCGiIiIiIhsEoMZIiIiIiKySQxmiIiIiIjIJjGYISIiIiIim8RghoiIiIiIbBKDGSIiIiIiskkMZoiIiIiIyCYxmCEiIiIiIpv0f55XlSCO5UTjAAAAAElFTkSuQmCC;" vertex="1" parent="MB20FCoI7DoMV8oSUzf_-28">
          <mxGeometry x="211.87" y="157.95999999999998" width="314.26" height="64.08" as="geometry" />
        </mxCell>
        <mxCell id="t4PKV1QuwNsnvt7W0I-o-4" value="&lt;font style=&quot;font-size: 18px;&quot;&gt;Optimize the loss function to find optimal state alpha.&lt;/font&gt;" style="text;html=1;align=center;verticalAlign=middle;whiteSpace=wrap;rounded=0;" vertex="1" parent="MB20FCoI7DoMV8oSUzf_-28">
          <mxGeometry x="242.13" y="40" width="270" height="130" as="geometry" />
        </mxCell>
        <mxCell id="t4PKV1QuwNsnvt7W0I-o-5" value="" style="shape=image;verticalLabelPosition=bottom;labelBackgroundColor=default;verticalAlign=top;aspect=fixed;imageAspect=0;image=data:image/png,iVBORw0KGgoAAAANSUhEUgAAAloAAAByCAYAAACLO3+YAAAAAXNSR0IArs4c6QAAAARnQU1BAACxjwv8YQUAAAAJcEhZcwAADsMAAA7DAcdvqGQAADqtSURBVHhe7d13VBTX9wDwu1RBbKBgwQb2gg2NxoIl0VgiRuxEI2KJPXaNMZbYS0w0lhgxtthbYkmCYovG2BvFHjUIIjZ63/v748vOb+fO7rJldmHxfs555zBv7rydHWZ23755854CEREYM1FqaipMmzYN1qxZA66urrB+/Xro1asXDbNqSqUSZs2aBYsWLQJnZ2dYv349fPrppzSsQFm5ciVMmTIFcnJy4Msvv4QFCxbQEMYYY2ak4IoWk9OpU6dgyJAh0L17d/j+++/paquWk5MDDRo0gGrVqsHq1auhYsWKNKRAOn/+PHz66afw+PFjGDRoEGzcuBHs7e1pGGOMMTPgihaTXXJyMjg4OICDgwNdZfVev34Nrq6uNLvAS0hIgJEjR8LOnTuhXbt2EBISAlWrVqVhjDHGZGZDMxgzlYuLS6GsZAGAVVayAABKlCgBO3bsgC1btsCVK1egTp06sHz5chrGGGNMZtyixdg7JjY2Fr766iu4du0aXL9+na5mjDEmI65oMfaOio6OBk9PT5rNGGNMRlzRYowxxhgzE+6jxRhjjDFmJlzRYowxxhgzE65oMcYYY4yZCVe0GGOMMcbMhCtajDHGGGNmwhUtxhhjjDEz4YoWY4wxxpiZcEWLMcYYY8xMuKLFGGOMMWYmXNFijDHGGDMTnoKHMcYYY7LJzMyExMRESE9PB3t7e3BxcYGiRYvSsHcGV7QYY4wxZrRnz57B0aNH4cqVK3D58mWIiIiArKwsUUyVKlXA19cXmjZtCu3atYOmTZuK1hdmXNFijDHGmMHOnDkDP/zwAxw6dAiys7Ppap2aNGkCo0ePhv79+0ORIkXo6kKFK1qMMcYY01tkZCQMGTIELl68KOQpFApo1KgR1KtXD+rWrQuVKlUCBwcHyM7Ohri4OIiIiIDw8HC4fPkyZGZmCtuVKVMGVq1aBf369RPyChuuaDHGGGMsT0qlElasWAGzZs2CjIwMAACoW7cufPbZZ9C/f3/w9PSkm0i8efMG9u7dC1u3boXz588L+b169YJ169ZB6dKlRfGFAVe0GGOMMaZTWloa+Pv7w/HjxwEAoFy5crBw4UL47LPPQKFQ0HC9HD16FCZMmAD3798HAAAPDw84ceIE1KtXj4ZaNR7egTHGGGNapaWlQbdu3YRK1tChQ+HevXswePBgoytZAABdu3aF8PBwmDFjBgAAxMXFQfv27SE8PJyGWjVu0WKMMcaYRunp6dC1a1c4efIkQO7Tg7du3YJixYrRUKNlZmZC8+bN4fr16wC5/bZOnz4NderUoaFWiVu0GGPMir169Qpev35NsxmTxcyZM4VKFgDA48ePoXPnzpCUlCSKM1ZmZiYEBAQIlSwAgPj4eOjdu7fQD8za5VuLFm1uzKfdyHdhYWEQGxsrLLdr1w4qVKggimGMWbfU1FSYO3cuODs7w+zZs+lqo4SFhcHKlSshNDQUZs6cKVu5uixevBiePHkCy5YtAxcXF7o6X1j6u+TevXtw9OhROH78OFy8eBESExPB3t4evL294cMPP4SOHTtChw4dwN7enm5qFESEnTt3glKpBMh9v3379gU7OzsaKrtz586Bn58fKJVKmD59OsTHx0NISAgAALRs2RJ+//13k1q2VJWsI0eOAACAv78/tG7dGiZPngwAAFOnToUlS5aQrfKWnp4OUVFREB4eDhEREfDy5UvYuHEjDQMAgPPnz8OePXvg2bNnULNmTRg7diyULVuWhok8fvwYQkJC4M6dO+Dp6QljxowBb29vGvb/MJ8AgCi9q2bPni06DlOnTqUhjAlevXqFnp6eWK5cOVlTxYoVMTExkb6c3oKDgyVlGpJq166NSqWSFlsonD59GqtUqYIAgEOHDqWrDXb27Fn08/MTfW54eXlZ5PgNGDAAAQCrVq2Kp0+fpqvzhaW+S54+fYqBgYGoUCgkr0lT9erV8cCBA7QIo7Vp00ZU/u+//05DZJeSkoLe3t4IANi8eXPMyclBpVKJwcHBwn60bNnS6M+NjIwM7Natm1CWv78/ZmZmIiJiz549EQDQxsYGL1y4QDcVefHiBe7YsQNnzpyJ/v7+WK1aNbSxsREdr759+9LN8PHjx/j+++9L/nfe3t74+vVrGo6Yu8+jRo2SlO/q6or37t2j4QLznZV5oG/uXXXnzh3RcahUqZJFPjCZdYqIiMCpU6fi559/jv7+/lirVi3JtaRPUigU2LBhQwwODsaxY8fismXL6EsZZOHChThu3Dhs3bq15ENIW/L29sbBgwfj+PHjcf369bTIQmHJkiVoa2uLdnZ2+N1339HVBsnKysKgoCDJcaxVqxYuXrwYMzIy6CZmsW3bNixRogQqFAqcPXs2XW1x9HjITalU4jfffINFihQRvY6HhwfOmDEDf/zxR/z222+xb9++kkpYmzZt8MmTJ7RIg61bt05U7qBBg2iI7NauXYuQ+1lx8eJFIV+OypauShbmVoKcnJwQALBTp06ibaljx45h165dccCAAVi/fn3RcVKlrVu3irbZv38/lipVShKnSt9//70oHhExNjZWY8VMlT7//HO6iUD+s1JPdCffZY0aNRIdi3PnztEQxrS6ePGi5BzSllxdXfGHH37AuLg4WoxsYmJicMmSJVorXH369MEHDx7QzQqVt2/fYo8ePRAA0NHREY8cOUJDDJKamir6YgIArFevHp45c4aGWsSNGzfQ1dUVAQAHDx4s+pK0NHp+ySkzMxMHDhwoeY3Fixdjeno6DcerV69iu3btRLEVKlTAW7du0VCDxMfHo52dnVBmsWLFMC0tjYbJqk6dOggAGBgYSFeZVNnKq5Kl8vXXXyPkVvTu3r1LV2s1btw40fG3sbHB+Ph4Yf3mzZsRALB48eI4ZswY9Pf3F8UDAI4dO1ZU5oMHD7B8+fKoUCiwT58+OHbsWLS1tRVt8/7774u2USfvWWkA+sbeZUuXLhUdi9GjR9MQxnS6d++e8AtQW/Lw8JDl17W+vvnmG8k+DB48mIYVOuHh4VitWjUEAHR2dsbQ0FAaYjD1lix7e3ucNWuWxVqwtLl69SqWLFkSAQA//PBDvb9o5UbPMbkkJSVhp06dJOVrau1Ql52djR06dBBtU6JECZNvtXbu3FlU5r59+2iIbMLCwoTX0fbD35jKlr6VLETEuLg4oXI5btw4ulqr1atXi45TixYthHXnz59HR0dHbNeuHT5//hwREXNycrB69eqibebPny9sk5KSgj4+PlixYkX8+++/hXz19w4A6OfnJ6yj5DsrDaS+gyDjxWGNnj59Kmpydnd3x+zsbBrGmE5NmzaVXFeqZGdnJ/qQsIRHjx6J9qFmzZqYmppKwwqVmzdvYunSpREA0MXFRZYWp+joaLS3txeO48aNG2lIvrl06RKWKFECAQAbNGiAz549oyFmR891uXzyySeSsvXtYxcfH4+VKlUSbevi4mJQywy1bds2UXkBAQE0RDaqin2VKlV0dmUxpLJlSCVLRVW5dHV1pau0GjZsmOg4qSpNT548QXd3d2zfvr3kc6hq1aqibX755RdhXWBgIHp4eEj6YA0ZMkS0zZAhQ0Tr1cl3VhpIfQdBxovDWrVu3Vp0PP78808awphOvr6+kutKlXr06EHDzS4yMlK0D6b2USrobty4gW5ubgi5twu1tQQYSnULBQCwfv36dHW+u3DhAhYrVgwBACtWrGhSZcIY9FyXw6pVqyTlFi1aFGNjY2moVidPnpSU0aBBA6Nv+SUlJYlarYsUKYIJCQk0TBaq24YTJkygqyT0qWwZU8lCRNy6dauwzf379+lqjSpWrCg65jdu3MCUlBRs0KCBxkpWSkqKpJuD6gfDqlWr0NXVVeOtX3qLeNu2bTREIM9ZaQT1HQSZLg5rpup4qErvwi0WJi9PT0/JdaVKv/76Kw03u+PHjwuvb29vL+onUdhcv35d6LMEAPjjjz/SEKMFBgYK5TZo0ICuLhB++uknYR+rVq0q3JaxBHqum+rq1avo6OgoKffrr7+moXlq0qSJpJyRI0fSML317t1bVNaWLVtoiMmSkpKEisfmzZvpao10VbaMrWQhIkZFRQnb7dy5k66WuHnzpuj4eHp6IiLi5MmT0cPDA1++fEk3Ed0mBbUfMxcuXEBHR0eNrdIpKSmShyN0teaaflYaSX0HQYaLw9rRzo7Fixc3+pcPe/c8ePBAck2pUtmyZTErK4tuYnYrV64U9sHf35+uLjQePHggqmQFBQXREJN88cUXov+n+m2NgkT9F76vry+mpKTQELOg57spcnJysHbt2pIyFQoFRkdH0/A8qbfIqCdj++0dOHBAVM5HH31EQ0x29uxZofxLly7R1Vppqmy9fPnS6EoW5vZ3U1V6J06cSFdLLFy4UHR8RowYgTdv3kQ7OzutPzbp9TV9+nTMysrCevXqSTrFqxw+fFi0TY0aNWiIiGlnpQnUdxJMvDgKC9rZcf/+/TSEMY3Wr18vuaZUSduHhbmpn8/6/Bq1RqmpqdigQQPhfVarVk32H0gPHz4UVeQcHBxw9erVNCzf3b9/X/Qr/+OPP7ZIX1N6vpti586dkvIgt9JgjIyMDNH/ztTy0tPThT5xkNv3Uu6WYvW+YJpagHShlS3VLWUwopKlUrduXQQA7NWrF10lQbvgHDp0CJs3b65zOIyaNWuKtvnrr79w6dKl6OXlhcnJyTQcERFHjhwp2iavVkrTzkoTqO8kmHhxFBb0148+JxZjiIi9evWSXFOqZInBDamMjAx0dnZGAEBbW1utAwBau0GDBomO9cGDB2mILE6cOCFq8QYA7NKli179wJKTk/HIkSM4a9YsHDZsGPbs2RODgoJw7969sleEFi1aJNrHGTNm0BDZ0fPdWEqlEuvVqycpD/R40lAXTcMHAACeOnWKhuqFjqW2du1aGmIS9dvASUlJdHWelEqlpKN49+7djapkISK+9957CADYrVs3ukrk7du3omukSJEi+O2332KFChXwzZs3NBxRwwM7rq6u+O+//6KLiwuGhYXRcEHlypVF2+U1fIvxZ6WJ1HcSTLg4CpPExERJZ0faqZAxSqlUCp2waXJ2dpa9hUUf6v0eWrVqRVcXCrQVsX379jREVufPn0cvLy/J/7hFixa4a9cu0ZfizZs3ccmSJdi+fXt0cHCQbKNKnTt3lrWylZWVJXpU3tbWVjTYpTnQ92QseltOPf377780XG8rVqyQlAcmnC+hoaGiclq3bk1DTLJx40ah7Ldv39LVeaJ9skBLB3l9NWvWDCG3hVSXffv2iV6zVatW6O7ujn/88QcNFdC+0f369cOAgAAcPnw4DRWEh4eLttHnM9b4s9JE6jsKJlwchQ1tmaAj2jJGXb16VXI9qVJeH07mMn36dGEfFi1aRFdbvaioKFGHaYVCgTdu3KBhsktKSpI8vq5Kjo6O2KFDB8mwAnklubsoqPfNAwCsXbu2xsE95ULfj7FULSc0lSlThoYa5NKlS5IyVeny5cs0PE/Z2dno4eEhlKFQKPDp06c0zGi//PKLUPbDhw/pap1oJUv9AR1jK1uq2S/69OlDV4kMHTpUdGydnJzy7Bv68ccfi7YJDg7GsmXL6nyak457qc9nrA2d+5DlrwEDBoiWd+7cKVpmjDpx4gTNEnTt2pVmWcTvv/8u/N2lSxfRusLgiy++gIyMDGG5ffv20KBBA1GMObi4uMCGDRvg5MmT0KpVK9G6jIwMCAsLg6dPn4ry8/Lff//RLJMMHjwYnJ2dheWoqCiLTHhtimfPnsHFixdpNgAA+Pr60iyDNG7cWOsE3Pv376dZebK1tYXevXsLy4gIu3btEsWYwsvLS/g7MjJStE4XTRNEP3jwAIKDgwFyJ2/u3LkzJCUlkS21y8zMhIcPHwKQ/dLkzz//FC2npaXBl19+KcpTl5mZCadOnRLlHTlyBKZNmwbFixcX5as7duyYaLlbt26iZY1ozctS1GuE+bgbBY4lOjuywqVjx46S60mV/vvvPxpuds+ePRNev2LFinS11fv1118lx3nHjh00zGwePnyIQ4cOzXMmAH2So6OjWc4R2upma2uLN2/epGGyoO/JGBs2bJCUo0rGDOtAabtGfXx8aKhe/v77b1E5jRo1oiFGS0tLE/o6LVmyhK7WiLZkqXd8px3kDWnZunXrlrCdrpHw6e080OPWLB3WAXKf0KbjbKmj/cAUCoXOYR1UjDsrZUDfIPt/gwcPFh2bdevW0RDGELWM56JK+TXmknofjxEjRtDVVi09PR29vb1Fx9nV1dWst8ZUnjx5goMGDZJ0igcAdHNzwylTpmBISAj27dtXdGtJW3JzczPbgxJ0PCMAwN69e9MwWdDXMYa2DuuQ++SaqegQAurJ2Nt+VapUEZVz584dGmK0hg0bIujRAR3zqGSpGFvZUq8A65o+bPny5ZLjeuLECRomMmXKFMk2K1eupGEie/bsEcX7+vrSEI2MOytlQN8g+39//vmn6NjI3dmRFR6aWldUaebMmTTcInr27Cnsw2+//UZXW7Vly5ZJjrMlhs/Yt2+fMK+geipRogTOnTtX45fWixcvMCwsDL///nscP348Dh8+HIODg3HixIl46NAhrY+uy4U+wWdjYyNrZUCFHhNDpaenY9GiRSXlqNL169fpJgaj4zupp/Xr19Nwvaj3gwQAnD17Ng0xmmr4Ant7e3z16hVdLdCnkqViTGXLz88PAQDLlStHV4l88MEHomPRrFkzGiJRv3590TZ5tWahhkaQb775hoZoZPhZKRP1nQUjLo7CzNydHVnhMXz4cMm1pEqWntsQETEzMxOLFy+OkPvUrKUGrbSE7OxsyfQeAKDzMXBTpaWl4eeffy55TQDAgQMH6vwSzG/jx4+X7LM5Zrygr2Eo9RkMNKW4uDi6icFCQkIk5apS9+7dabheaKthXoNmGuLixYtCudoqgoZUslQMqWw9efJEmAP4yy+/pKsFycnJkpH88xpmJTo6WhQPerRmKZVKSUuxvrfDDT8rZULfpCXExMRgWFgYHj58GENDQ/Hx48c0xGgZGRl46dIlXLt2LU6ePJmuNtiYMWNEx2fZsmU0hDGt0+6ULl0ac3JyaLjZnTp1StgHc4xanZ80Pf5vZ2dntspkZmYmvv/++5LXdHZ2xk2bNtHwAoeOng25LSS6bgEZg76GobQNv6DaX12TKutL07FQpapVq9JwvakG81Slq1ev0hCjqSapr1atGmZkZIjWGVPJUtG3sjVu3DiE3P59uvoR0mNbo0aNPP9n6t0bIHcey7xaeNX7i0HuhNvqdI0VaPhZKRP1HQYjLg593blzB6dPny4avZkerJEjR+r8R+ryxRdfYJMmTURj1fTs2ZOGGez8+fOi/WzcuDENYe+4GzduSM5nVRo4cCANtwj1fg+rVq2iq61a+/btJce5adOmNEw2EyZMkLxelSpVMDw8nIYWSElJSRr7k02dOpWGmoSWb6jRo0dLylClSpUq0XCj6Briwc7OzugpsubPny8qS44f+SpbtmwRyl2+fLmQb0olSyWvylZ4eLhw7uT1fUr/f/p0maDDKAUGBtIQCTpsifpo8MnJyVi3bl2t/fkMPytlor7DYMTFkZf4+HgcPXq0xgtdU3JycsI5c+YY1AqgbX65H374gYYaTKlUSkafvXv3Lg1j7zD6Iauedu3aRcMtQr1fjqFj8BRkkZGRkmMMADhhwgQaKosjR45IXqto0aJ469YtGlqgtWrVSvI+5LzFhTJ8l3z00UeSMlSpefPmNNwojx8/lpStnoy9Vuh3UMWKFfNszdFXZmYmNmrUCCG3L2B0dLQslSwVbZUtpVIpzJvp6OiIERERdFMR+nBKXmOTZWdnS/o7Hjt2jIZJ0EFYVZ+xmZmZ2KlTJ/zwww/pJgLDz0qZqO8wGHFx6LJ7927JgVQoFNihQwfcsWMH/vfffxgXF4d79+7F5s2bi+ICAwP1HimZjgytSpGRkTTUKNOmTROVO2fOHBrC3mEtWrSQnHuQ+wvZmBGdTfX06VNhH2rVqkVXW7XZs2dLjjPk8ci5KVSdgNVTQZ1MWhfV7R+a5PzRSMs2VI0aNSRlqFJerSn6SktLk5StnoydZBrVRk5XpbNnz9IQo926dUu4W9OsWTPZKlkqmipbEydOFJbzGl7i/v37ovfu6elJQyTOnTsn2qZkyZJ5vo+srCzRvI0AgI8ePcLU1FTs06cPenl56Zx03PCzUibqOwxGXBzaLFy4UOhAp0pubm54/PhxGoqY+4+mTxLomoBSXUBAgOR95PV0hCFoZ8eaNWvSEPaOio+PRxsbG8n5BwDo5+dHwy1C/YfHpEmT6GqrpqmvFJg4NYs2sbGxkv+ttV77dIoTVZKzzykt2xA5OTk6pyiS84lSXa+jrcO5Pr777jtRWXlNcGyoBQsWSPZXjkqWCq1sqVKLFi3yvMO0atUq0TbDhg2jIRIzZ84UbaPP9/29e/ck+9euXTusVasW1qhRQ2clCwtTRUupVEoGyYPcjnyPHj2i4SLZ2dmScVTy+qX69u1bjQMGjhs3joaapE6dOqLyr127RkPYO2jbtm2Sc0+V5PwSM4T6NXTy5Em62mrRQQpVSaFQyPZlo079iS9V+uKLL2iYVdA0KCQAYJs2bWio0WjZhlBvhdWU5s+fTzcxmrbx7sDEfmsxMTGiinnp0qWN7vOlSXZ2Nvbr108o38PDw6jJpnXJyckRblMCAHp5een1pH2XLl1Ex3Hv3r00RKJJkyaibX799VcaInH37l3J/wxyp5eKiYmh4RIK/N+JanEKhUK0bOpuzJ49G+bNmyfKc3Z2hosXL0K9evVE+Zo8fvwYvL29QalUAgCAu7s73Lt3D0qUKEFDAQBgw4YNMGLECJoNkZGRULt2bZpttPnz58OsWbOE5cmTJ8OyZctEMQVFVFQUvH37lmZbtYYNG4KTkxPNznf9+/fXOu2G3OegPjIzM8HNzQ2Sk5OhePHi8PLlS7C3t6dhVunQoUPwySef0Gxwd3eHuLg4mm2ymzdvQsOGDUV5Y8eOhVWrVonyrEFMTAxUqFCBZoOtrS28ePECXF1d6SqDmfJdcuvWLZ1TJy1duhSmTJlCs41StGhRSE1NpdkAADB8+HD48ccfabbeOnToACdPnhSWjx07Bp07dxbFmCInJwc+/fRT4TOnefPmsHnzZqhZsyYNNdjLly9h3LhxwnRzXl5ecPr0aahYsSINFVEqldCuXTtISUkByD0PQkNDoVSpUjRUkJKSAu3atRO+5x0cHODUqVPg6OhIQ0VycnKgf//+sHfvXgAAsLOzg+HDh8O8efPAzc2NhkvRmpel0JqhKQ4cOCC5XQgAuGXLFhqqE23VUn/SgqJ9u8BMA4uas7Oj3LRNM2HNSa7+dnLKzs7GUqVKSfYVcn8J5gf1sYgCAgLoaqtGh1pRJTmnPVGXmZkpGUCzSpUqsrZSWBJ9L6pkSr8kdbRcQ1y5ckWyvXr69ttv6SZGo2M9qaegoCAabpCffvpJVJ45njrOzs7Gzz77THgNe3t7nDRpks4JmHXJysrClStXivpT165dW6+WrPyQnZ2NW7ZswbVr1xo88K5hZ6WM6IlmrKioKHRxcZGU16pVKxqap5MnT4rKqFy5ssaO8VFRUZLXAwDcvn07DZWFOTs7yokrWpZx9uxZyX6qkpx9Sgyh3oHVGsZ4MoSmYR1Az+lJjBUUFCR5vc2bN9Mwq0CfnlalNWvW0FCj0HINQecMpEnOIUo03X5WJX2GF9Dl9evXoj5gxYoVy3OUc2Pt3LkT3dzchNcqUaIEDh06FM+ePatXI8CtW7dwypQpojEAbWxscOLEiZiWlkbDCwUb2sJlbcaOHQvJyck0GxYuXEiz8uTn5yeadf7JkyeS2b0BADZv3kyzwM3NDXr16kWzZdG/f3/RsqqJlb2b6Ozx6vSaSd4MVPukUCigS5cudHW+ePLkCWRmZtJsgz169IhmAQBA+fLlaZZsFi1aBMWLFxfljRkzBv755x9RnjUoWbIkzQIAgPv379Msi1PdQtLGzs6OZhktJyeHZgl0rdNHqVKl4KOPPhKWk5KS4OjRo6IYufTr1w8iIiKgV69eoFAoICEhATZu3Aht2rSB0qVLg5+fH4wZMwaWLl0K3333HSxfvhwmT54MnTp1gvLly4OPjw8sW7YMoqOjAQCgbt26cObMGVixYgUUKVKEvlzhQGtelkJr9MY4evSopBzQY9ZuXWjr0fTp00XrExMTRbV5VTLnU1bm7uwoF27Rsgw6R5cqubi4WGRyY+rff/8V9kHfSVbN7ejRo7JMXZWVlYW2traSYw0yzy2nSWhoqOSzpmTJknj69GkaWqBpGqoCALBr16401Ci0XEP8888/ku3V04YNG+gmRsnOzpaUrZ7kuNW3c+dOUZlyDU2hy4MHD3DChAmS4ZTySra2ttijR488J34uLKy2M3xOTg74+PhAZGQkXQXbtm2DTz/9lGbrZdCgQbBt2zZhuWnTpnDp0iVhee7cuTBnzhxhWeXu3btQo0YNmi2b9u3bi1rXfv/9d9EvmIKAO8Ob37Nnz8DT05NmAwBAjx494ODBgzTb7NasWQNjxowByH0oRdP1YUkxMTHQsGFDePnyJaSnp4ODgwMN0dvDhw+hWrVqNBsgt9Vp+vTpNFtWT58+hd69e4s+gxQKBYwePRoWL14MRYsWFfKVSiVERkbCxYsX4fLly/D06VNITk4GJycnaNWqFfTt29esn1HafPLJJ3Do0CGaDTVq1IC7d+/SbIOZ8l1y/fp1aNy4Mc0WbNq0CYKCgmi2wTIyMnS21gQHB8PGjRtptkFSU1PB3d1d6BxepEgRiIuLk7SMmkNqaiqcOXMGrly5ApcvX4Zr167Bq1evID09Hezt7cHFxQXq1asHvr6+0LRpU2jdurXWz7FCida8LIXWcA21fft2SRmQOw+YKY+eTp06VVSejY0NvnnzBhERX716JUyYq55MaUHTF+3sqM/YH6zw2bFjh+T8UyW5fn0bSv0R60uXLtHVFpWTkyOMKu3q6kpXG0x97kaaLDWMRkZGBo4ZM0bywE+FChVw2bJluGTJEuzYsaNkQEWaHB0dcceOHbR4s6PjFKqSvb29LC3ztFxDhIeHS7ZXTyEhIXQToyQnJ0vKVk9yjX3Vv39/UbnW2q+vsLHaPlpbt26lWQC5fVRcXFxott7KlSsnWlYqlXD+/HmA3Ed9ExMTRettbGxg8eLFojxzCAgIEP0yP3jwIKSnp4tiWOH3119/0SxBfrRwpqenCy2t7u7u4OvrS0MsasGCBcL+lC1blq42mLbH8QHAYsNXODg4wOrVq+HWrVvQvn17If/Zs2cwZcoUmDZtGoSGhkJSUpJoOyojIwNGjBgBb968oavMStvj9llZWRAbG0uzLSqvfnam9p1S0dSPWB393jHWgAEDRMvcn7dgsMqK1vPnzyEsLIxmAwBAu3btaJZBNJ3wT548gefPn8Pq1avpKggODoamTZvSbNmVKlUKOnXqJCwnJSXBkSNHRDGs8Dt79izNAgCAWrVq5TnujDmcPHkS0tLSAACgc+fOkts4lnTu3DmYO3eusCxHRSsrK4tmCWxsLPPxmZOTA/v374eJEydq/f/rKykpCW7evEmzzUrXLbP8/rFYqlQprZ31IbdyKodnz57RLBFvb2+aZZROnTqJxiYLCwuD+Ph4UQyzPMt8Ushs165dWn9pvP/++zTLIJoqWjExMTB37lzJr1tXV1dYtGiRKM+c+OnDd9vr16819kmE3AEE88Pu3buFv7t27SpaZ0mvX7+GAQMGiD4X5Kho5ae3b9/CsmXLwNvbG3r16gXHjx+H7OxsgNynnIOCgnT2L9LE0dERatWqRbPzjRxPhZpKVyVHrgFpY2JiaJaIl5cXzTKKvb09BAQECMvZ2dnCIJss/1hlRUtTx0oAgGLFiuk1CrwumpqSDx06pHHU3gULFug3KqxM6tevL1oODw8XLbPC7a+//tLa0dfQL1w5pKenC53vHRwcRC2uljZkyBD477//RHkeHh6iZWOY0pHeFIcPHwYvLy+YOnUqPHnyRMivWbMmbNq0CWJjY2HTpk1w9epVuHTpEowcOVLrLTp1c+fOLVAV0IJQ0dJVyZHr1mZeLVq69sFQ9Hvi9u3bomVmeVZZ0dLW9F23bl2Tm/M1fQhFRERIvuCaNGkCw4cPF+WZ2/79+0XLPXv2FC2zwk39yTOqUaNGNMvsDh8+LPQLatu2rUWebtJk9erV8Ouvv9JsjdeyoXRNzZHXGEzGyMnJgWnTpoG/v7+oL1X16tVhz549EBkZCUFBQaL+YU2bNoW1a9dCbGws7Nu3D4YPHw7Vq1cX1tvZ2UGHDh3gwIEDMG3aNCHfUuhnp7r8vNWsoqtFS66Klq4WLRcXF3B3d6fZRjtw4IBomb8n8p9ptZJ88N9//2kdQkCOx0WLFi2aZ2VNoVDADz/8kGec3OitQnorkRVu2gbOtLGxkcyNZwnq52OPHj1E6yzlxo0bWueik6OipevBGvpgjKkQEfr16wdLly4VVU78/f3hypUr0Lt3b52fOY6OjhAQEAA//vgj3Lt3D5KSkuD58+eQmJgIJ06c0DhfoyWobndqkl8thup0VbSeP39Os4yiq0VLztasZ8+eifrxeXh4iB6gYPlD+1VbQN26dYtmCeSoaCkUCtHo8JoEBQVZvE/MtWvXRGPO1K1bF3x8fEQxrHB7/PgxzQIAgKpVq+qsEJhDQkKCMBq8ra1tvlS0kpOToW/fvpCZmQmjR4+mq2WpaOn6EtT2g89Yc+fOhX379gnLNjY2MH/+fDh48KBRrYUuLi7g4eGR7+PA6apoFStWjGZZnK5+vZZo0WrZsiXNMtru3btFLa29e/cGW1tbUQyzPKuraEVERNAsgaZZ4o2hPgggVapUKYsM50BxaxbT9mGt66kpc9m9e7fwRFbPnj01PkRibqNHj4Z79+7BxIkTNbboyVHRKl26tNa+T3IOkxAeHg7z5s0T5U2fPh1mzpxZIG6vmUJbRcvBwUG2z2xT1KlTB6pUqUKzAQDgxYsXstwi1nbtgswPkezYsUO0TId7YPnD6ipar169olkCXRUkQ+hqHVi+fDmUKVOGZpsVIsKuXbtEeVzRevdo6zgs13mvL6VSCStWrBCWJ02aJFpvCVu3boWtW7eCr68vLFq0SGPLgxwVLcjtH6WJnC1a8+fPF90urFGjBsyaNUsUY620HafKlSvrvBVqSdoqOzk5OTorSfrIycmBBw8e0GwAAHBycpLt1t79+/fh6tWrwnKVKlWgRYsWohiWP6xuCp7x48fDqlWraDYAAGzYsAGGDRtGsw1Wo0YNjROeDhkyBEJCQmi22Z09exb8/PyE5ffee69ATi57584drR+q1qphw4Y6xwGyJE9PT419Pdq0aQNnzpyh2Wazb98+6N27N0DubY9z587RELO6d+8eNGnSBBQKBVy/fh28vb1h9OjRsHbtWiHGzs4OMjIyZPkiHzhwIGzfvp1mQ9u2bTVOOm+o6OhoqFy5sqjlZP/+/YWmEzOdPkylU6dO8Mcff9Bsgxn7XaLu2LFjWitbe/bsEc53Y4SHh0ueBFTp3LmzzkniDUGnh5s+fbpFhx9iOtCh4i2FTkGgr7Fjx0q2VaX169fTcIMtW7ZMUi4AYKNGjTAtLY2GW8SIESNE+/Ldd9/RkAKBJ5U2rxYtWkj2DwCwbt26NNSsfH19hdc+cOAAXW1W6enp2KhRIwQA3L59u5D/ySefiI5JuXLlRNuZYu7cuZJjDgDYsGFDGmoUOq2So6MjpqSk0DCrVaNGDcmxAwAcNWoUDTUKLdcYqamp6OTkJCkLAHD06NE03CCbNm2SlKlKP/zwAw03Ws2aNUVl37p1i4awfGL6zz0L03WbJK8pKPISFhamdZLYlStX5kvLRlZWlqiDrK2tLfTt21cUw94N2sbKioqKynOKD7ns2bMHrly5AgAA1apVA39/fxpiVlOmTIHr16/DoEGDIDAwUMintw7lum0IuaPua0LH7TIWbZ2uXbt2ng/kWBNNrbCg43zOD05OTtCvXz+aDQAAp0+fplkGUV0vlLOzM/Tp04dmG4U+LFWvXj2trWjM8qyuolWtWjWaJbhw4QLN0tvjx4+hb9++WkecV00zYmmhoaGifmlt27aV9UuEWQ9t/S2USqXky9ocXr16BWPHjhWWv/76a1luzenrt99+g9WrV0P16tVhzZo1onX0MXw5r5G2bdtqfJ+vXr2Cly9f0myD3bhxQ7RsqTkULSEhIQFSUlJoNkDurcOCZMaMGRr/z5GRkSb9n7XdWh8xYoRs/X35YamCTXpWFXB16tShWQJtJ3Re/v33X2jfvr3OjvYvXrygWRZBLyB+iuTd1aNHD62P+W/YsIFmye6LL74QroNu3brBwIEDaYjZREdHQ1BQEDg4OMCuXbskD6yYs0XL3d1d63Au6q0IxqIt8Xfv3rVYC6W5aWvNql27tizD8cipevXqGu8WIKLRfSDv37+vcUgiR0dHreO/GUrTw1LaWudY/rC6zvApKSlQpkwZrS1MUVFRWpv6NYmKioIPPvggzydLli5dqvPCSEhIgOLFi0velylSU1PBw8ND+NB1cHCAuLi4fHmcXx/37t2DhIQEmm3V6tevny+3jLUZOXIkrF+/nmaDjY0NhIeHQ+3atekqWezYsUO4VVeqVCmIiIiw2JAOOTk50K5dO/jrr7/g22+/hQkTJojWv3nzRjSRLuS2TixcuFCUZ4qlS5dqHFV948aNEBwcTLMN0qhRI0mr1rx58wrFU4eHDx+G7t2702wYP348fPfddzTbKPQzV9/vEk0iIiKgfv36kjL69+8vGTpBHwsWLICvvvqKZsOoUaMkrbLGspaHpd5ptNOWpdBOgYYICAiQbK9KGzZsoOFaXbt2DcuUKSMpw8bGRpI3bNgwurng9u3bWLRoUbx9+zZdZZJdu3aJ9sHf35+GsHfMv//+i0WLFpWcnwCATZo0wdTUVLqJyfbv3492dnbC66h3QreEWbNmIQBgly5dUKlU0tUYGRkpORbff/89DTPJnTt3JK8BADhp0iQaarC2bdtKygUA/PzzzzE9PZ2GW5Vp06ZJ3hcA4B9//EFDjUbLNlVQUJCkTHt7e4yOjqahefLx8ZGUVapUKaPK0oY+LCX3uc9MZ/pZaSR68hni4MGDku1VqUePHjRco/Pnz2OJEiUk21euXBnXrl0ryW/dujUtAhERU1JSsFq1alikSBHZn0rs3r27aB92795NQ9g7aMWKFZLzU5X69OmDWVlZdBOjHT58GO3t7YXy+/XrR0PM6tSpU2hjY4PlypXDFy9e0NWIiBgWFiY5Dua4VjQ9Pde0aVMaZjBtlREAwOrVq+O3336Lz58/p5tZhZYtW0reU+XKlTEnJ4eGGo2Wb6rk5GTJE3wAgNOnT6ehOh0+fFhSBgDgoUOHaKjRMjMz0c3NTSjb1tYWY2NjaRjLZ6aflUaiJ58hlEolNm7cWFKGKv388890E0FmZiauWbNGY6tA48aNMSYmBp8+fSpZ5+7uTotCRMTJkycjAOCECRPoKpO8fv0aHRwchNd3cXExS2sFsz7Z2dno5+cnOUdVqU2bNhgXF0c3M0hqairOmDFDVMn65JNPMDMzk4aaTXx8PJYvXx5tbGwwLCyMrhZs375dcgxOnz5Nw0ymaZgHGxsbfPPmDQ01yIMHD1ChUEjKpsnNzQ1btmyJwcHBuGjRIty8eTOGhoZieHg4Jicn02LzXXp6Ojo6Okrex+LFi2moSWj5crh58yYWKVJEVG7JkiXx6dOnNFSj7OxsrF27tmTfxo0bR0NNcuTIEVH5HTp0oCGsAJDnrDQCPQENdfLkSUkZquTk5IR79uwR3WZ4+/YtbtmyBb28vCTxAICdO3fGpKQkIb5WrVqSmNevXwvrERGPHz8u/No29cOW+umnn0SvHRgYSEPYOywxMRHfe+89yTmqSqVLl8Zly5YZVTn/7bffsEqVKqLyevbsKWtLWV6USiV26dIFAQBnzJhBV4ssX75c8v7v3LlDw0z26tUrdHFxkbyWHGOJyTEGXbVq1XD27Nn48OFDWny+OHfunGQfixQpgi9fvqShJqGvIZeNGzdKyn7vvfcwIyODhkosXbpUsm3z5s312tYQgYGBotcICQmhIawAkO+sNBA9CY3x1VdfScpRT97e3ti+fXts1KgR2traStZDbqVs6dKlmJ2dLSpbU3P+8uXLERExJycHFy5cKPRb2bdvn2hbObRv31702kePHqUh7B335s0bnZUtyK1wDRw4EH/55ReMj4+nRSAiYlJSEh4+fBjHjh2r8QfGwIEDLVrJQrXboy1atMjztSdNmiTZ57dv39IwWUyZMkXyWnIMvPno0SMsW7aspGxjkkKhwICAAExMTKQvY1Hz58+X7FtQUBANMxl9DTlt3rxZ1D8RAHD48OGS7wt1P/30k6SFslOnTqIf8nJISUkRVfwdHBxk/8HP5CHvWWkAOS4OpVIpqdEbkj744AOtv/5u374tum2iSj4+Pli+fHlhefz48XRTk8XExIg65JcuXTrPLxv2bsrKysJ58+ZpPFdpsrGxwYoVK2Lt2rXR19cXfXx80NvbW+u25cuXl7U/ib4uX74s7JOfnx8OGDBAZ/L29hbtt5OTEy1SNrGxsZJbSl5eXho76Rvq+vXrWLJkScn/wdhUp04dvH//Pn0Zi6F92hwcHPDu3bs0zGT0fcvt999/l3Q1qVOnjuTH78OHD3HMmDGSh6kGDhxollvu/LCU9ZD/rNSTnBfHvHnzJCe3ruTj44Nbt26lxUisWrVKsq16MrRzpL5Wrlwpep3PP/+chjAmcv36dfzoo48Mug60JWdnZxw1apTZWoV0SUhIkFScDE1VqlShxcpq9OjRktf8888/aZhRYmNjccCAAZIWEWNT5cqVZb9dpY+zZ89K9mXKlCk0TBb0dcwhKioKu3btKnmtqlWrYvPmzbFhw4aSa698+fK4adMmWSrhmvDDUtbDPGelHugJa6rw8HAMCAjQ+uu8XLlyOG7cOLx27RrdVKdt27ZJnpypXbs2/vTTTzRUNk2bNhW93pkzZ2gIYxo9evQIp0+fjhUqVJBcA7qSjY0NNmnSBNesWZMvFSyVfv36IeTOL3fkyBG9kvpTV5DbF8acYmNj0dXVVfSa3bt3p2EmiYuLw9DQUFy1ahWOHDkS27Vrhx4eHpL/mz5p7dq1tHiz++yzz0T7UK5cObPdyqTv15xOnDiBLVu2lFSq6HudM2eOWR9Q4IelrIvVDVial9TUVPj7778hOjoabG1twcPDAxo0aAAeHh401CAvX76EhIQEcHBwgIoVK9LVsnnw4AFUr15dWPb09ISnT59KjhdjeXn+/DncvHkTbty4AXfu3IHU1FTIyMgAhUIBdnZ2ULZsWWjQoAH4+PhAvXr18n1+vZCQEBg6dCi0bt0aTp06Bba2tjREIycnJ0hPTxeWe/ToAQcPHhTFyE19AFfIHTD20aNHULlyZVGc3F6+fAkREREQHh4upIiICHjz5g0NFVj6MyQhIQHKly8PqampQt7WrVvNNpMAfV9yfZfo8vr1azhx4gT8888/kJiYCA4ODuDt7Q0dO3a0yByDGzduhGHDhgnLgYGBsH37dlEMK0BozctS6K8A9j/z5s0THZfJkyfTEMYKncjISHR2dkY3NzeDBnNMSEiQfJZY6lZ7z549Ra87bdo0GmIxFy5cwGbNmkmOhSpZspP01KlTRa/dsWNHs90+w3f0u4QflrIuVjfXYWFH5zbkyUFZYZeeng59+/aFtLQ02Lx5M1SoUIGGaBUXF0ezZJ3nUJd169ZB6dKlheUff/xR4/5YQvPmzeGff/6BxYsX01UAAFqnLJPbo0eP4PvvvxeWK1euDDt27JC0OjHjxcbGwunTp4Xl0qVLQ8eOHUUxrGDhilYBcuPGDYiKihKWa9asCY0bNxbFMFbYTJw4EW7fvg0TJkyAbt260dU6aZrs3VJzMLq7u8PPP/8MNjb/+xh9+/YtjBs3joZZjEKhgKlTp0KzZs3oKq2Tkctt8uTJkJGRAZA7cfK+ffvAzc2NhjET7N69G5RKpbDcq1cvsLOzE8WwgoUrWgUIt2axd82hQ4dg3bp14Ovrq7U1RhdNLUiWqmgBAHTr1g1WrVolLO/ZswcOHz4sirEkhUIhqWj5+vpC0aJFRXnm8Ntvv4n6xq1atQp8fX1FMcx0dHJr/p4o+LiiVUAgIuzatUuUxxcQK8xiYmJg6NChYGdnByEhIWBvb09D8qSpRatEiRI0y6xGjx4NU6ZMEZZHjRoFSUlJohhLio2NFS0PGDBAtGwODx48gEGDBgnLEydOhOHDh4timOkePHgAly9fFpY9PT2hdevWohhW8HBFq4A4f/48PH36VFhu0qQJ1KhRQxTDWGGRnJwMPXv2hFevXsGECRPAx8eHhujlyZMnNAucnJxoltktWbIE+vXrBwAA0dHRMHHiRBpiEampqXD8+HFhuUiRIsJ+mUtqaioEBARAQkICAABMmjQJVqxYQcOYDOhdj379+nH/NyvAFa0CgpuD2bsiIyMD/P394eLFiwC5LUDGUv91r5IfXzwKhQK2bdsGwcHBALmP38+cOZOGmd2cOXMgMTFRWF65cqVZb6Wmp6dD79694datWwC5fbSWL19Ow5hMaEWLvyesBH0M0VLexUdytcnKysLSpUsLx8LGxsagR9wZsxZZWVmSEa2NHSD1zp076OTkJPksWb16NQ21qLlz5wr7Mnv2bLrabC5evCial69fv340RFYpKSn4wQcfCK+XX8Nb0P9/YXX9+nXR+6xZsyYNYQVUvp2V78rFoY9jx46JjoWfnx8NYczqhYaGSmY9AAD88ssvaWieLl26hA0aNJCUBbkjc589e5ZuYlE///yzMEvF/Pnz6WrZHTp0SDQfX//+/TEtLY2GySYxMRHbtGmDkDu35M8//0xDLIb+/wsrOj7ZnDlzaAgroPLtrHxXLg59DBw4UHQs1q9fT0MYs1qjRo3CJk2aSK559eTl5YUDBw7UObDlpk2bMCAgAGvWrCnZXlOqXr06fvzxx/jVV1/RoiwiNDQUixUrhpD7pZiTk0NDTKZUKnHRokXC3Ig2Nja4YMECGiaruLg4bN68OQIAent7440bN2iIRdH/e2GkVCqxUqVKovdpjgm6mXkUuil4rE1aWhp4eHgITynZ29vD8+fPwdXVlYYyZnWUSiVs27ZNr+u7ZMmS0KNHD5otCA0NhZiYGJqdpypVqkDbtm1ptkXcvn0bAgMD4fbt29C2bVvYsmULVKpUiYYZLDY2FkJCQiAkJAQeP34MAADdu3eH+fPnm3UKmEuXLkFAQABER0eDv78/bNmyxeJPeVLvwnfJuXPnRE8XNm7cGK5evSqKYQUXV7Ty2d69e6FPnz7CcteuXeHIkSOiGMaY9crMzIS5c+fCkiVL4KOPPjLo+r569Sps2LABUlJSABEhJSUF4uPj4dKlS5CdnQ0AAH5+frBo0SJo0aIF3Vx2NWrUgFevXsGSJUsgODhY8jmeH+g+FMbvklGjRsG6deuE5eXLl8OkSZNEMazg4opWPps8eTIcPXpUWF6wYAH07NlTFMMYs36XL1+GcuXKgaenJ12lVdOmTeHKlSuivGLFioGfnx988MEH8OGHH0KdOnVE683pwoULUK1aNShTpgxdlW8K+3cJIkKbNm0gPj4eIPf9Hj9+3KDziOWvfKtoMcYY0+3MmTNw+PBhcHJyglKlSkHz5s2hWbNmPOUKY1aEK1qMMcYYY2bCA5YyxhhjjJkJV7QYY4wxxsyEK1qMMcYYY2bCFS3GGGOMMTPhihZjjDHGmJlwRYsxxhhjzEy4osUYY4wxZiZc0WKMMcYYMxOuaDHGGGOMmQlXtBhjjDHGzIQrWowxxhhjZsIVLcYYY4wxM+GKFmOMMcaYmXBFizHGGGPMTLiixRhjjDFmJlzRYowxxhgzE65oMcYYY4yZCVe0GGOMMcbM5P8ABHamyb0YX38AAAAASUVORK5CYII=;" vertex="1" parent="MB20FCoI7DoMV8oSUzf_-28">
          <mxGeometry x="250" y="274.93" width="238" height="45.07" as="geometry" />
        </mxCell>
        <mxCell id="MB20FCoI7DoMV8oSUzf_-64" style="edgeStyle=orthogonalEdgeStyle;rounded=0;orthogonalLoop=1;jettySize=auto;html=1;entryX=1;entryY=0.5;entryDx=0;entryDy=0;" parent="1" source="MB20FCoI7DoMV8oSUzf_-34" target="MB20FCoI7DoMV8oSUzf_-47" edge="1">
          <mxGeometry relative="1" as="geometry" />
        </mxCell>
        <mxCell id="MB20FCoI7DoMV8oSUzf_-34" value="Optimial &quot;Xi&quot;" style="shape=parallelogram;html=1;strokeWidth=2;perimeter=parallelogramPerimeter;whiteSpace=wrap;rounded=1;arcSize=12;size=0.23;" parent="1" vertex="1">
          <mxGeometry x="484" y="1020" width="100" height="60" as="geometry" />
        </mxCell>
        <mxCell id="MB20FCoI7DoMV8oSUzf_-42" style="edgeStyle=orthogonalEdgeStyle;rounded=0;orthogonalLoop=1;jettySize=auto;html=1;entryX=0;entryY=0.5;entryDx=0;entryDy=0;" parent="1" source="MB20FCoI7DoMV8oSUzf_-35" target="MB20FCoI7DoMV8oSUzf_-28" edge="1">
          <mxGeometry relative="1" as="geometry" />
        </mxCell>
        <mxCell id="MB20FCoI7DoMV8oSUzf_-48" style="edgeStyle=orthogonalEdgeStyle;rounded=0;orthogonalLoop=1;jettySize=auto;html=1;" parent="1" source="MB20FCoI7DoMV8oSUzf_-35" target="MB20FCoI7DoMV8oSUzf_-47" edge="1">
          <mxGeometry relative="1" as="geometry" />
        </mxCell>
        <mxCell id="MB20FCoI7DoMV8oSUzf_-35" value="Ansatz" style="shape=parallelogram;html=1;strokeWidth=2;perimeter=parallelogramPerimeter;whiteSpace=wrap;rounded=1;arcSize=12;size=0.23;" parent="1" vertex="1">
          <mxGeometry x="50" y="708.75" width="160" height="172.5" as="geometry" />
        </mxCell>
        <mxCell id="MB20FCoI7DoMV8oSUzf_-66" style="edgeStyle=orthogonalEdgeStyle;rounded=0;orthogonalLoop=1;jettySize=auto;html=1;entryX=0;entryY=0.5;entryDx=0;entryDy=0;" parent="1" source="MB20FCoI7DoMV8oSUzf_-47" target="MB20FCoI7DoMV8oSUzf_-54" edge="1">
          <mxGeometry relative="1" as="geometry">
            <Array as="points">
              <mxPoint x="120" y="1060" />
            </Array>
          </mxGeometry>
        </mxCell>
        <mxCell id="MB20FCoI7DoMV8oSUzf_-47" value="U_A(&quot;xi&quot;)" style="shape=parallelogram;html=1;strokeWidth=2;perimeter=parallelogramPerimeter;whiteSpace=wrap;rounded=1;arcSize=12;size=0.23;" parent="1" vertex="1">
          <mxGeometry x="80" y="1020" width="100" height="60" as="geometry" />
        </mxCell>
        <mxCell id="MB20FCoI7DoMV8oSUzf_-56" style="edgeStyle=orthogonalEdgeStyle;rounded=0;orthogonalLoop=1;jettySize=auto;html=1;" parent="1" source="MB20FCoI7DoMV8oSUzf_-54" target="MB20FCoI7DoMV8oSUzf_-55" edge="1">
          <mxGeometry relative="1" as="geometry" />
        </mxCell>
        <mxCell id="MB20FCoI7DoMV8oSUzf_-54" value="Take Statevector" style="rounded=1;whiteSpace=wrap;html=1;absoluteArcSize=1;arcSize=14;strokeWidth=2;" parent="1" vertex="1">
          <mxGeometry x="343" y="1100" width="148" height="80" as="geometry" />
        </mxCell>
        <mxCell id="MB20FCoI7DoMV8oSUzf_-57" style="edgeStyle=orthogonalEdgeStyle;rounded=0;orthogonalLoop=1;jettySize=auto;html=1;" parent="1" source="MB20FCoI7DoMV8oSUzf_-55" target="MB20FCoI7DoMV8oSUzf_-58" edge="1">
          <mxGeometry relative="1" as="geometry">
            <mxPoint x="414" y="1390" as="targetPoint" />
          </mxGeometry>
        </mxCell>
        <mxCell id="MB20FCoI7DoMV8oSUzf_-55" value="StateVector (alpha)" style="shape=parallelogram;html=1;strokeWidth=2;perimeter=parallelogramPerimeter;whiteSpace=wrap;rounded=1;arcSize=12;size=0.23;" parent="1" vertex="1">
          <mxGeometry x="340" y="1230" width="154" height="84" as="geometry" />
        </mxCell>
        <mxCell id="MB20FCoI7DoMV8oSUzf_-60" style="edgeStyle=orthogonalEdgeStyle;rounded=0;orthogonalLoop=1;jettySize=auto;html=1;" parent="1" source="MB20FCoI7DoMV8oSUzf_-58" target="MB20FCoI7DoMV8oSUzf_-59" edge="1">
          <mxGeometry relative="1" as="geometry" />
        </mxCell>
        <mxCell id="MB20FCoI7DoMV8oSUzf_-58" value="&lt;b&gt;Support Vector&lt;/b&gt;" style="shape=parallelogram;html=1;strokeWidth=2;perimeter=parallelogramPerimeter;whiteSpace=wrap;rounded=1;arcSize=12;size=0.23;" parent="1" vertex="1">
          <mxGeometry x="332" y="1350" width="170" height="80" as="geometry" />
        </mxCell>
        <mxCell id="MB20FCoI7DoMV8oSUzf_-68" style="edgeStyle=orthogonalEdgeStyle;rounded=0;orthogonalLoop=1;jettySize=auto;html=1;entryX=0.5;entryY=0;entryDx=0;entryDy=0;" parent="1" source="MB20FCoI7DoMV8oSUzf_-59" target="MB20FCoI7DoMV8oSUzf_-62" edge="1">
          <mxGeometry relative="1" as="geometry" />
        </mxCell>
        <mxCell id="MB20FCoI7DoMV8oSUzf_-59" value="Decision Function" style="rounded=1;whiteSpace=wrap;html=1;absoluteArcSize=1;arcSize=14;strokeWidth=2;" parent="1" vertex="1">
          <mxGeometry x="367" y="1458" width="100" height="100" as="geometry" />
        </mxCell>
        <mxCell id="MB20FCoI7DoMV8oSUzf_-70" style="edgeStyle=orthogonalEdgeStyle;rounded=0;orthogonalLoop=1;jettySize=auto;html=1;" parent="1" source="MB20FCoI7DoMV8oSUzf_-62" target="MB20FCoI7DoMV8oSUzf_-69" edge="1">
          <mxGeometry relative="1" as="geometry" />
        </mxCell>
        <mxCell id="MB20FCoI7DoMV8oSUzf_-62" value="y = {-1; 1}" style="shape=parallelogram;html=1;strokeWidth=2;perimeter=parallelogramPerimeter;whiteSpace=wrap;rounded=1;arcSize=12;size=0.23;" parent="1" vertex="1">
          <mxGeometry x="367" y="1590" width="100" height="60" as="geometry" />
        </mxCell>
        <mxCell id="MB20FCoI7DoMV8oSUzf_-69" value="End" style="strokeWidth=2;html=1;shape=mxgraph.flowchart.terminator;whiteSpace=wrap;" parent="1" vertex="1">
          <mxGeometry x="367" y="1680" width="100" height="60" as="geometry" />
        </mxCell>
      </root>
    </mxGraphModel>
  </diagram>
</mxfile>
